<?xml version="1.0" encoding="UTF-8" standalone="no"?><!DOCTYPE svg PUBLIC "-//W3C//DTD SVG 1.1//EN" "http://www.w3.org/Graphics/SVG/1.1/DTD/svg11.dtd"><svg width="100%" height="100%" viewBox="0 0 461 260" version="1.1" xmlns="http://www.w3.org/2000/svg" xmlns:xlink="http://www.w3.org/1999/xlink" xml:space="preserve" xmlns:serif="http://www.serif.com/" style="fill-rule:evenodd;clip-rule:evenodd;stroke-linejoin:round;stroke-miterlimit:1.41421;"><path d="M0,194.934l460.8,64.266l-460.8,0l0,-64.266Z" style="fill:#e5506c;"/><path d="M0,0l0,98.094l460.8,-48.918l0,-49.176l-460.8,0Z" style="fill:#ffce48;"/><path d="M271.987,247.199l17.452,-11.059l-8.863,-2.075l-17.411,11.79l8.822,1.344Z" style="fill-opacity:0.2;"/><path d="M298.52,245.855l17.024,-6.913l9.234,1.288l-17.437,6.969l-8.821,-1.344Z" style="fill-opacity:0.2;"/><path d="M460.8,49.176l-460.8,48.918l0,96.84l460.8,64.266l0,-210.024Z" style="fill:#fff;"/><clipPath id="_clip1"><path d="M460.8,49.176l-460.8,48.918l0,96.84l460.8,64.266l0,-210.024Z"/></clipPath><g clip-path="url(#_clip1)"><path d="M287.199,252.291l-0.843,10.595l-9.453,1.466l12.653,-159.046l2.213,-27.823l1.572,-19.755l9.252,1.059l-0.759,9.546l27.284,0l0.843,-10.605l8.16,8.21l-4.094,58.043l0.258,0l-0.409,1.901l-4.589,57.679l0.274,0l-0.435,2.021l-6.15,77.304l-9.453,1.466l0.959,-12.061l-27.283,0Zm28.011,-9.15l1.642,-20.64l-27.283,0l-1.642,20.64l27.283,0Zm2.37,-29.79l1.643,-20.64l-27.284,0l-1.642,20.64l27.283,0Zm2.37,-29.79l1.643,-20.641l-27.284,0l-1.642,20.641l27.283,0Zm2.37,-29.79l1.643,-20.641l-27.284,0l-1.642,20.641l27.283,0Zm2.371,-29.79l1.485,-18.675l-27.284,0l-1.485,18.675l27.284,0Zm2.213,-27.824l1.486,-18.674l-27.284,0l-1.486,18.674l27.284,0Z" style="fill-opacity:0.2;"/></g><rect x="-4.296" y="92.052" width="4.296" height="6.041" style="fill:#e3eeff;"/><rect x="456.504" y="259.2" width="4.296" height="6.041" style="fill:#e3eeff;"/><g><path d="M299.038,57.728l-27.051,189.471l4.525,-4.525l26.396,-176.736l-3.87,-8.21Z" style="fill:#e5506c;"/><path d="M334.393,57.728l-27.193,189.471l4.525,-4.525l26.396,-176.736l-3.728,-8.21Z" style="fill:#e5506c;"/><rect x="288.636" y="69.892" width="42.807" height="8.39" style="fill:#e5506c;"/><rect x="285.615" y="95.304" width="42.215" height="8.39" style="fill:#e5506c;"/><rect x="281.549" y="121.21" width="42.215" height="8.39" style="fill:#e5506c;"/><rect x="277.245" y="148.268" width="43.171" height="8.39" style="fill:#e5506c;"/><rect x="273.472" y="175.981" width="42.215" height="8.39" style="fill:#e5506c;"/><rect x="269.553" y="202.816" width="42.215" height="8.39" style="fill:#e5506c;"/><rect x="266.015" y="230.057" width="42.215" height="8.39" style="fill:#e5506c;"/><path d="M299.038,57.728l-27.051,189.471l4.525,-4.525l26.396,-176.736l-3.87,-8.21Z" style="fill:#e5506c;"/><path d="M334.393,57.728l-27.193,189.471l4.525,-4.525l26.396,-176.736l-3.728,-8.21Z" style="fill:#e5506c;"/><rect x="288.636" y="69.892" width="42.807" height="8.39" style="fill:#e5506c;"/><rect x="285.615" y="95.304" width="42.215" height="8.39" style="fill:#e5506c;"/><rect x="281.549" y="121.21" width="42.215" height="8.39" style="fill:#e5506c;"/><rect x="277.245" y="148.268" width="43.171" height="8.39" style="fill:#e5506c;"/><rect x="273.472" y="175.981" width="42.215" height="8.39" style="fill:#e5506c;"/><rect x="269.553" y="202.816" width="42.215" height="8.39" style="fill:#e5506c;"/><rect x="266.015" y="230.057" width="42.215" height="8.39" style="fill:#e5506c;"/></g><rect x="288.636" y="67.453" width="43.171" height="8.39" style="fill:#ffce48;"/><rect x="285.615" y="92.967" width="42.549" height="8.39" style="fill:#ffce48;"/><rect x="281.102" y="118.481" width="43.171" height="8.39" style="fill:#ffce48;"/><rect x="277.556" y="145.798" width="42.549" height="8.39" style="fill:#ffce48;"/><rect x="274.099" y="173.115" width="42.357" height="8.39" style="fill:#ffce48;"/><rect x="271.539" y="200.432" width="39.2" height="8.39" style="fill:#ffce48;"/><rect x="268" y="227.749" width="39.2" height="8.39" style="fill:#ffce48;"/><path d="M299.038,57.728l-9.152,0.971l-26.721,187.156l8.822,1.344l27.051,-189.471Z" style="fill:#ffce48;"/><path d="M334.393,57.728l-9.153,0.971l-26.72,187.156l8.821,1.344l27.052,-189.471Z" style="fill:#ffce48;"/></svg>