<?xml version="1.0" encoding="UTF-8" standalone="no"?><!DOCTYPE svg PUBLIC "-//W3C//DTD SVG 1.1//EN" "http://www.w3.org/Graphics/SVG/1.1/DTD/svg11.dtd"><svg width="100%" height="100%" viewBox="0 0 16 16" version="1.1" xmlns="http://www.w3.org/2000/svg" xmlns:xlink="http://www.w3.org/1999/xlink" xml:space="preserve" xmlns:serif="http://www.serif.com/" style="fill-rule:evenodd;clip-rule:evenodd;stroke-linejoin:round;stroke-miterlimit:1.41421;"><path d="M7.236,1.216c0.092,-0.158 0.261,-0.256 0.444,-0.256c0.183,0 0.352,0.098 0.444,0.256l0.563,0.976l-6.041,10.464l0.503,0l5.79,-10.028l1.006,1.744l-4.782,8.284l9.565,0l0.563,0.975c0.092,0.159 0.092,0.354 0,0.513c-0.091,0.158 -0.26,0.256 -0.443,0.256l-10.692,0l-0.436,0l-1.987,0l-0.094,0l-1.127,0c-0.183,0 -0.352,-0.098 -0.443,-0.256c-0.092,-0.159 -0.092,-0.354 0,-0.513l0.563,-0.975l6.604,-11.44Z" style="fill:#2c2c2c;"/><path d="M14.476,12.22l-9.061,0l0.979,-1.744l7.103,0l0.979,1.744Z" style="fill:url(#_Linear1);"/><clipPath id="_clip2"><path d="M14.476,12.22l-9.061,0l0.979,-1.744l7.103,0l0.979,1.744Z"/></clipPath><g clip-path="url(#_clip2)"><path d="M12.869,0.448l-1.96,0l-7.837,13.952l1.959,0l7.838,-13.952Z" style="fill-opacity:0.368627;"/></g><defs><linearGradient id="_Linear1" x1="0" y1="0" x2="1" y2="0" gradientUnits="userSpaceOnUse" gradientTransform="matrix(-9.79668,1.23307e-15,-1.19975e-15,-10.0688,14.4764,11.3478)"><stop offset="0" style="stop-color:#e17a00;stop-opacity:1"/><stop offset="1" style="stop-color:#ff0058;stop-opacity:1"/></linearGradient></defs></svg>