<?xml version="1.0" encoding="UTF-8" standalone="no"?><!DOCTYPE svg PUBLIC "-//W3C//DTD SVG 1.1//EN" "http://www.w3.org/Graphics/SVG/1.1/DTD/svg11.dtd"><svg width="100%" height="100%" viewBox="0 0 76 194" version="1.1" xmlns="http://www.w3.org/2000/svg" xmlns:xlink="http://www.w3.org/1999/xlink" xml:space="preserve" xmlns:serif="http://www.serif.com/" style="fill-rule:evenodd;clip-rule:evenodd;stroke-linejoin:round;stroke-miterlimit:1.41421;"><path d="M8.947,189.599l17.452,-11.059l-8.863,-2.075l-17.411,11.79l8.822,1.344Z" style="fill-opacity:0.2;"/><path d="M36.132,191.879l16.372,-10.537l9.234,1.288l-17.929,10.419l-7.677,-1.17Z" style="fill-opacity:0.2;"/><path d="M197.76,-8.424l-460.8,48.918l0,96.84l460.8,64.266l0,-210.024Z" style="fill:#fff;"/><clipPath id="_clip1"><path d="M197.76,-8.424l-460.8,48.918l0,96.84l460.8,64.266l0,-210.024Z"/></clipPath><g clip-path="url(#_clip1)"><path d="M24.159,194.691l-0.843,10.595l-9.453,1.466l12.653,-159.046l2.213,-27.823l1.572,-19.755l9.252,1.059l-0.759,9.546l27.284,0l0.843,-10.605l8.16,8.21l-4.094,58.043l-11.051,138.905l-9.453,1.466l0.959,-12.061l-27.283,0Zm28.011,-9.15l1.642,-20.64l-27.283,0l-1.642,20.64l27.283,0Zm2.37,-29.79l1.643,-20.64l-27.284,0l-1.642,20.64l27.283,0Zm2.37,-29.79l1.643,-20.641l-27.284,0l-1.642,20.641l27.283,0Zm2.37,-29.79l1.643,-20.641l-27.284,0l-1.642,20.641l27.283,0Zm2.371,-29.79l1.485,-18.675l-27.284,0l-1.485,18.675l27.284,0Zm2.213,-27.824l1.486,-18.674l-27.284,0l-1.486,18.674l27.284,0Z" style="fill-opacity:0.2;"/></g><g><path d="M35.998,0.128l-27.051,189.471l4.525,-4.525l26.396,-176.736l-3.87,-8.21Z" style="fill:#e5506c;"/><path d="M71.353,0.128l-27.193,189.471l4.525,-4.525l26.396,-176.736l-3.728,-8.21Z" style="fill:#e5506c;"/><rect x="25.596" y="12.292" width="42.807" height="8.39" style="fill:#e5506c;"/><rect x="22.575" y="37.704" width="42.215" height="8.39" style="fill:#e5506c;"/><rect x="18.509" y="63.61" width="42.215" height="8.39" style="fill:#e5506c;"/><rect x="14.205" y="90.668" width="43.171" height="8.39" style="fill:#e5506c;"/><rect x="10.432" y="118.381" width="42.215" height="8.39" style="fill:#e5506c;"/><rect x="6.513" y="145.216" width="42.215" height="8.39" style="fill:#e5506c;"/><rect x="2.975" y="172.457" width="42.215" height="8.39" style="fill:#e5506c;"/><path d="M35.998,0.128l-27.051,189.471l6.609,-4.128l24.312,-177.133l-3.87,-8.21Z" style="fill:#e5506c;"/><path d="M71.353,0.128l-27.544,192.921l5.718,-4.451l25.554,-180.26l-3.728,-8.21Z" style="fill:#e5506c;"/><rect x="25.596" y="12.292" width="42.807" height="8.39" style="fill:#e5506c;"/><path d="M33.412,18.243l4.612,2.439l21.38,0l0.349,-2.439l-26.341,0Z" style="fill:#cd4a62;"/><rect x="22.575" y="37.704" width="42.215" height="8.39" style="fill:#e5506c;"/><rect x="18.509" y="63.61" width="42.215" height="8.39" style="fill:#e5506c;"/><rect x="14.205" y="90.668" width="43.171" height="8.39" style="fill:#e5506c;"/><rect x="10.432" y="118.381" width="42.215" height="8.39" style="fill:#e5506c;"/><rect x="6.513" y="145.216" width="42.215" height="8.39" style="fill:#e5506c;"/><rect x="2.975" y="172.457" width="42.215" height="8.39" style="fill:#e5506c;"/><path d="M29.769,43.757l4.917,2.337l21.09,0l0.334,-2.337l-26.341,0Z" style="fill:#cd4a62;"/><path d="M26.126,69.271l5.004,2.729l20.948,0l0.389,-2.729l-26.341,0Z" style="fill:#cd4a62;"/><path d="M22.226,96.588l5.19,2.471l20.798,0l0.353,-2.471l-26.341,0Z" style="fill:#cd4a62;"/><path d="M18.326,123.905l5.286,2.866l20.646,0l0.409,-2.866l-26.341,0Z" style="fill:#cd4a62;"/><path d="M14.426,151.222l5.503,2.384l20.498,0l0.34,-2.384l-26.341,0Z" style="fill:#cd4a62;"/><path d="M10.526,178.54l5.664,2.307l20.347,0l0.33,-2.307l-26.341,0Z" style="fill:#cd4a62;"/></g><rect x="25.596" y="9.853" width="43.171" height="8.39" style="fill:#ffce48;"/><rect x="22.575" y="35.367" width="42.549" height="8.39" style="fill:#ffce48;"/><rect x="18.062" y="60.881" width="43.171" height="8.39" style="fill:#ffce48;"/><rect x="14.516" y="88.198" width="42.549" height="8.39" style="fill:#ffce48;"/><rect x="11.059" y="115.515" width="42.357" height="8.39" style="fill:#ffce48;"/><rect x="8.499" y="142.832" width="39.2" height="8.39" style="fill:#ffce48;"/><rect x="4.96" y="170.149" width="39.2" height="8.39" style="fill:#ffce48;"/><path d="M35.998,0.128l-9.152,0.971l-26.721,187.156l8.822,1.344l27.051,-189.471Z" style="fill:#ffce48;"/><path d="M71.353,0.128l-9.153,0.971l-26.068,190.78l7.677,1.17l27.544,-192.921Z" style="fill:#ffce48;"/></svg>