<?xml version="1.0" encoding="UTF-8" standalone="no"?><!DOCTYPE svg PUBLIC "-//W3C//DTD SVG 1.1//EN" "http://www.w3.org/Graphics/SVG/1.1/DTD/svg11.dtd"><svg width="100%" height="100%" viewBox="0 0 6 6" version="1.1" xmlns="http://www.w3.org/2000/svg" xmlns:xlink="http://www.w3.org/1999/xlink" xml:space="preserve" xmlns:serif="http://www.serif.com/" style="fill-rule:evenodd;clip-rule:evenodd;stroke-linejoin:round;stroke-miterlimit:1.41421;"><g><path d="M3.977,2.711l0,0.007l0,0.03l-0.002,0.03l-0.002,0.029l-0.002,0.029l-0.004,0.029l-0.003,0.029l-0.005,0.028l-0.005,0.028l-0.006,0.028l-0.007,0.028l-0.007,0.028l-0.008,0.027l-0.008,0.027l-0.009,0.026l-0.01,0.026l-0.01,0.026l-0.011,0.026l-0.011,0.025l-0.012,0.025l-0.013,0.025l-0.013,0.024l-0.013,0.024l-0.014,0.024l-0.015,0.023l-0.015,0.023l-0.015,0.022l-0.016,0.022l-0.017,0.021l-0.017,0.022l-0.017,0.02l-0.018,0.02l-0.019,0.02l-0.019,0.019l-0.019,0.019l-0.019,0.019l-0.021,0.017l-0.02,0.018l-0.021,0.017l-0.021,0.016l-0.022,0.016l-0.022,0.015l-0.022,0.015l-0.023,0.014l-0.023,0.013l-0.023,0.013l-0.024,0.013l-0.024,0.011l-0.025,0.012l-0.024,0.01l-0.025,0.01l-0.026,0.01l-0.025,0.008l-0.026,0.008l-0.026,0.008l-0.026,0.007l-0.027,0.006l-0.027,0.005l-0.013,0.003l-0.014,0.002l-0.013,0.002l-0.014,0.002l-0.014,0.002l-0.013,0.001l-0.014,0.001l-0.014,0.002l-0.014,0.001l-0.014,0.001l-0.014,0l-0.014,0.001l-0.014,0l-0.014,0l-0.014,0l-0.014,0l-0.014,-0.001l-0.014,0l-0.014,-0.001l-0.014,-0.001l-0.014,-0.002l-0.014,-0.001l-0.014,-0.002l-0.014,-0.001l-0.013,-0.002l-0.014,-0.002l-0.014,-0.003l-0.013,-0.002l-0.014,-0.003l-0.013,-0.002l-0.013,-0.003l-0.014,-0.004l-0.026,-0.006l-0.026,-0.008l-0.026,-0.008l-0.026,-0.009l-0.025,-0.009l-0.025,-0.01l-0.025,-0.011l-0.024,-0.011l-0.024,-0.012l-0.024,-0.013l-0.024,-0.013l-0.023,-0.013l-0.023,-0.015l-0.022,-0.015l-0.022,-0.015l-0.022,-0.016l-0.021,-0.016l-0.021,-0.017l-0.021,-0.018l-0.02,-0.018l-0.02,-0.018l-0.019,-0.019l-0.019,-0.019l-0.018,-0.02l-0.018,-0.021l-0.017,-0.02l-0.017,-0.022l-0.017,-0.021l-0.016,-0.022l-0.016,-0.023l-0.015,-0.023l-0.014,-0.023l-0.014,-0.024l-0.014,-0.024l-0.013,-0.024l-0.012,-0.025l-0.012,-0.025l-0.011,-0.026l-0.011,-0.025l-0.01,-0.027l-0.01,-0.026l-0.008,-0.027l-0.009,-0.027l-0.007,-0.027l-0.008,-0.028l-0.006,-0.028l-0.006,-0.028l-0.005,-0.028l-0.004,-0.029l-0.004,-0.029l-0.003,-0.029l-0.003,-0.029l-0.002,-0.029l-0.001,-0.03l0,-0.03l-0.274,-2.027l2.742,0l-0.274,2.027Zm-1.919,-1.547l0.204,1.512l0.001,0.053l0.001,0.018l0.001,0.018l0.001,0.018l0.002,0.018l0.003,0.017l0.002,0.018l0.003,0.017l0.004,0.017l0.004,0.016l0.004,0.017l0.005,0.016l0.005,0.017l0.005,0.016l0.006,0.015l0.006,0.016l0.006,0.015l0.007,0.015l0.007,0.015l0.007,0.015l0.008,0.014l0.008,0.015l0.008,0.014l0.009,0.013l0.008,0.014l0.01,0.013l0.009,0.013l0.01,0.013l0.01,0.012l0.01,0.012l0.01,0.012l0.011,0.012l0.011,0.011l0.011,0.011l0.011,0.01l0.012,0.011l0.011,0.009l0.012,0.01l0.012,0.009l0.013,0.009l0.012,0.009l0.013,0.008l0.012,0.008l0.013,0.008l0.013,0.007l0.013,0.007l0.014,0.006l0.013,0.007l0.013,0.006l0.014,0.005l0.014,0.005l0.014,0.005l0.014,0.004l0.014,0.004l0.016,0.004l0.005,0.002l0.007,0.001l0.008,0.002l0.007,0.001l0.007,0.002l0.008,0.001l0.007,0.001l0.007,0.001l0.008,0.001l0.007,0.001l0.008,0.001l0.007,0l0.008,0.001l0.007,0l0.008,0.001l0.008,0l0.007,0l0.008,0l0.008,0l0.007,0l0.008,0l0.008,-0.001l0.007,0l0.008,-0.001l0.007,0l0.008,-0.001l0.007,-0.001l0.007,-0.001l0.008,-0.001l0.007,-0.001l0.007,-0.001l0.006,-0.001l0.016,-0.004l0.014,-0.003l0.015,-0.004l0.014,-0.004l0.014,-0.004l0.013,-0.005l0.014,-0.005l0.014,-0.005l0.013,-0.006l0.014,-0.006l0.013,-0.007l0.013,-0.006l0.013,-0.008l0.013,-0.007l0.012,-0.008l0.013,-0.008l0.012,-0.009l0.013,-0.009l0.012,-0.009l0.011,-0.009l0.012,-0.01l0.012,-0.011l0.011,-0.01l0.011,-0.011l0.011,-0.011l0.01,-0.011l0.011,-0.012l0.01,-0.012l0.01,-0.013l0.01,-0.012l0.009,-0.013l0.009,-0.013l0.009,-0.013l0.009,-0.014l0.008,-0.014l0.008,-0.014l0.008,-0.014l0.007,-0.015l0.007,-0.015l0.007,-0.015l0.006,-0.015l0.006,-0.016l0.006,-0.015l0.005,-0.016l0.005,-0.016l0.005,-0.017l0.004,-0.016l0.004,-0.017l0.004,-0.016l0.003,-0.018l0.003,-0.017l0.002,-0.017l0.002,-0.018l0.002,-0.017l0.001,-0.018l0.001,-0.018l0,-0.021l0,-0.035l0.205,-1.514l-1.644,0Z"/><path d="M5.09,1.049l-0.06,0.289l-0.007,0.031l-0.009,0.042l-0.012,0.051l-0.014,0.06l-0.016,0.068l-0.018,0.076l-0.021,0.081l-0.011,0.043l-0.012,0.044l-0.012,0.045l-0.013,0.046l-0.013,0.048l-0.014,0.048l-0.014,0.048l-0.015,0.05l-0.015,0.049l-0.015,0.051l-0.017,0.05l-0.016,0.051l-0.017,0.051l-0.018,0.051l-0.018,0.05l-0.018,0.051l-0.019,0.05l-0.02,0.05l-0.02,0.05l-0.02,0.049l-0.021,0.047l-0.011,0.025l-0.01,0.023l-0.011,0.024l-0.011,0.023l-0.011,0.023l-0.012,0.023l-0.011,0.022l-0.012,0.022l-0.012,0.022l-0.012,0.022l-0.012,0.022l-0.012,0.021l-0.013,0.021l-0.012,0.02l-0.013,0.021l-0.013,0.02l-0.014,0.019l-0.013,0.02l-0.014,0.019l-0.014,0.018l-0.015,0.018l-0.015,0.018l-0.015,0.018l-0.015,0.017l-0.017,0.017l-0.016,0.016l-0.017,0.016l-0.018,0.016l-0.018,0.015l-0.019,0.014l-0.02,0.014l-0.02,0.013l-0.021,0.013l-0.023,0.012l-0.023,0.01l-0.023,0.01l-0.024,0.008l-0.014,0.004l-0.013,0.004l-0.013,0.003l-0.013,0.003l-0.014,0.002l-0.013,0.002l-0.014,0.002l-0.014,0.001l-0.014,0.001l-0.014,0l-0.014,0l-0.014,-0.001l-0.014,-0.001l-0.014,-0.002l-0.015,-0.002l-0.014,-0.002l-0.013,-0.003l-0.014,-0.004l-0.014,-0.004l-0.013,-0.004l-0.014,-0.004l-0.013,-0.005l-0.013,-0.006l-0.012,-0.005l-0.013,-0.007l-0.009,-0.004l0.22,-0.426l0,0l-0.002,0l-0.001,0l-0.002,0l-0.001,0l-0.001,0l-0.002,0l-0.001,0l-0.002,0l-0.001,0l-0.001,0l-0.001,0l-0.001,0.001l0,0l-0.001,0l-0.002,0l0.002,0l0.001,0l0.001,-0.001l0.003,-0.001l0.003,-0.002l0.003,-0.003l0.005,-0.003l0.005,-0.004l0.006,-0.004l0.006,-0.006l0.006,-0.006l0.007,-0.007l0.007,-0.007l0.008,-0.009l0.008,-0.009l0.008,-0.01l0.009,-0.01l0.008,-0.012l0.009,-0.011l0.009,-0.013l0.009,-0.013l0.009,-0.014l0.009,-0.014l0.009,-0.015l0.009,-0.016l0.01,-0.016l0.009,-0.016l0.009,-0.017l0.01,-0.018l0.009,-0.018l0.009,-0.018l0.01,-0.019l0.009,-0.019l0.009,-0.02l0.01,-0.02l0.009,-0.02l0.009,-0.02l0.018,-0.042l0.018,-0.043l0.018,-0.045l0.017,-0.044l0.018,-0.046l0.017,-0.046l0.016,-0.047l0.016,-0.047l0.016,-0.047l0.016,-0.047l0.015,-0.048l0.014,-0.047l0.015,-0.047l0.014,-0.046l0.013,-0.047l0.013,-0.045l0.013,-0.045l0.012,-0.044l0.011,-0.043l0.011,-0.042l0.011,-0.041l0.02,-0.078l0.011,-0.046l-0.522,0l0,-0.48l1.092,0l0.021,0.026Z"/><path d="M1.783,1.503l-0.522,0l0.011,0.046l0.02,0.078l0.011,0.041l0.011,0.042l0.011,0.043l0.012,0.044l0.013,0.045l0.013,0.045l0.013,0.047l0.014,0.046l0.015,0.047l0.014,0.047l0.015,0.048l0.016,0.047l0.016,0.047l0.016,0.047l0.016,0.047l0.017,0.046l0.018,0.046l0.017,0.044l0.018,0.045l0.018,0.043l0.018,0.042l0.009,0.02l0.009,0.02l0.01,0.02l0.009,0.02l0.009,0.019l0.01,0.019l0.009,0.018l0.009,0.018l0.01,0.018l0.009,0.017l0.009,0.016l0.01,0.016l0.009,0.016l0.009,0.015l0.009,0.014l0.009,0.014l0.009,0.013l0.009,0.013l0.009,0.011l0.008,0.012l0.009,0.01l0.008,0.01l0.008,0.009l0.008,0.009l0.007,0.007l0.007,0.007l0.006,0.006l0.006,0.006l0.006,0.004l0.005,0.004l0.005,0.003l0.003,0.003l0.003,0.002l0.003,0.001l0.001,0.001l0.001,0l0.002,0l-0.002,0l-0.001,0l0,0l-0.001,-0.001l-0.001,0l-0.001,0l-0.001,0l-0.002,0l-0.001,0l-0.002,0l-0.002,0l-0.003,0l-0.003,0l0.221,0.426l-0.009,0.004l-0.013,0.007l-0.012,0.005l-0.013,0.006l-0.013,0.005l-0.014,0.004l-0.013,0.004l-0.014,0.004l-0.014,0.004l-0.013,0.003l-0.014,0.002l-0.015,0.002l-0.014,0.002l-0.014,0.001l-0.014,0.001l-0.014,0l-0.014,0l-0.014,-0.001l-0.014,-0.001l-0.014,-0.002l-0.013,-0.002l-0.014,-0.002l-0.013,-0.003l-0.013,-0.003l-0.013,-0.004l-0.014,-0.004l-0.024,-0.008l-0.023,-0.01l-0.024,-0.01l-0.022,-0.012l-0.021,-0.013l-0.02,-0.013l-0.02,-0.014l-0.019,-0.014l-0.018,-0.015l-0.018,-0.016l-0.017,-0.016l-0.016,-0.016l-0.017,-0.017l-0.015,-0.017l-0.015,-0.018l-0.015,-0.018l-0.015,-0.018l-0.014,-0.018l-0.014,-0.019l-0.013,-0.02l-0.014,-0.019l-0.013,-0.02l-0.013,-0.021l-0.013,-0.02l-0.012,-0.021l-0.012,-0.021l-0.012,-0.022l-0.012,-0.022l-0.012,-0.022l-0.012,-0.022l-0.011,-0.022l-0.012,-0.023l-0.011,-0.023l-0.011,-0.023l-0.011,-0.024l-0.01,-0.023l-0.011,-0.025l-0.021,-0.048l-0.02,-0.048l-0.02,-0.05l-0.02,-0.05l-0.019,-0.05l-0.018,-0.051l-0.018,-0.05l-0.018,-0.051l-0.017,-0.051l-0.016,-0.051l-0.017,-0.05l-0.015,-0.051l-0.015,-0.049l-0.015,-0.05l-0.014,-0.048l-0.014,-0.048l-0.013,-0.048l-0.013,-0.046l-0.012,-0.045l-0.012,-0.044l-0.011,-0.043l-0.021,-0.081l-0.018,-0.076l-0.016,-0.068l-0.014,-0.06l-0.012,-0.051l-0.009,-0.042l-0.007,-0.031l-0.06,-0.289l0.021,-0.026l1.092,0l0,0.48Z"/><path d="M2.88,3.58l0,1.676" style="fill:#fff800;"/><rect x="2.64" y="3.58" width="0.48" height="1.676"/><path d="M1.737,5.027l2.286,0" style="fill:#fff800;"/><rect x="1.737" y="4.787" width="2.286" height="0.48"/></g></svg>