<?xml version="1.0" encoding="UTF-8" standalone="no"?><!DOCTYPE svg PUBLIC "-//W3C//DTD SVG 1.1//EN" "http://www.w3.org/Graphics/SVG/1.1/DTD/svg11.dtd"><svg width="100%" height="100%" viewBox="0 0 111 64" version="1.1" xmlns="http://www.w3.org/2000/svg" xmlns:xlink="http://www.w3.org/1999/xlink" xml:space="preserve" xmlns:serif="http://www.serif.com/" style="fill-rule:evenodd;clip-rule:evenodd;stroke-linejoin:round;stroke-miterlimit:1.41421;"><path d="M258.984,65.179c2.922,-5.061 8.322,-8.179 14.166,-8.179c5.844,0 11.244,3.118 14.166,8.179c40.188,69.607 154.605,267.783 194.792,337.39c2.922,5.061 2.922,11.297 0,16.358c-2.922,5.061 -8.322,8.178 -14.165,8.178c-80.376,0 -309.21,0 -389.586,0c-5.844,0 -11.244,-3.117 -14.166,-8.178c-2.921,-5.061 -2.921,-11.297 0,-16.358c40.188,-69.607 154.605,-267.783 194.793,-337.39Z" style="fill:none;"/><clipPath id="_clip1"><path d="M258.984,65.179c2.922,-5.061 8.322,-8.179 14.166,-8.179c5.844,0 11.244,3.118 14.166,8.179c40.188,69.607 154.605,267.783 194.792,337.39c2.922,5.061 2.922,11.297 0,16.358c-2.922,5.061 -8.322,8.178 -14.165,8.178c-80.376,0 -309.21,0 -389.586,0c-5.844,0 -11.244,-3.117 -14.166,-8.178c-2.921,-5.061 -2.921,-11.297 0,-16.358c40.188,-69.607 154.605,-267.783 194.793,-337.39Z"/></clipPath><g clip-path="url(#_clip1)"><path d="M328.122,38.817l-53.918,0l-224.178,388.288l53.918,0l224.178,-388.288Z" style="fill:url(#_Linear2);"/></g><path d="M110.023,63.579l-81.579,0.421c-15.698,0 -28.444,-12.745 -28.444,-28.444l0,-35.556l3.556,0l0,35.556c0,13.736 11.152,24.888 24.888,24.888l0,-3.555c-5.461,0 -10.446,-2.057 -14.222,-5.438l0,0l0,0c-4.363,-3.907 -7.111,-9.583 -7.111,-15.895l3.556,0c0,0 0,0.093 0,0.093l0,0.012l0,0.009l0,0.026l0.001,0.047l0,0.024l0,0.018l0,0.022l0.001,0.029l0.001,0.038l0,0.026l0,0.014l0.001,0.016l0.001,0.058l0,0.026l0.001,0.005c0,0.034 0.001,0.068 0.003,0.102l0,0.007l0.001,0.03l0.001,0.051l0.001,0.016l0.001,0.017l0.001,0.028l0.001,0.032l0.001,0.028l0.001,0.026l0.001,0.02l0.001,0.018l0.002,0.043l0.002,0.033l0,0.01l0.001,0.007l0.004,0.081l0.001,0.015l0.002,0.033l0.003,0.056l0.001,0.01l0.001,0.015l0.002,0.032l0.002,0.035l0.002,0.021l0.001,0.025l0.002,0.025l0.002,0.021l0.002,0.033l0.003,0.034l0.001,0.015l0.001,0.01l0.003,0.048l0.003,0.039l0.003,0.03l0.006,0.067l0.001,0.016l0.004,0.039l0.003,0.036l0.001,0.015l0.002,0.022l0.004,0.031l0.002,0.024l0.002,0.025l0.004,0.032l0.002,0.021l0.001,0.013l0.004,0.036l0.004,0.042l0.002,0.013l0.006,0.055l0.005,0.044l0.005,0.046l0.004,0.037l0.002,0.009l0.002,0.019l0.004,0.037l0.004,0.026l0.002,0.019l0.004,0.029l0.003,0.027l0.002,0.016l0.004,0.028l0.005,0.041l0.002,0.016l0.001,0.005l0.005,0.035l0.007,0.054l0.009,0.059l0.004,0.033l0.001,0.003l0.002,0.016l0.007,0.043l0.004,0.028l0.002,0.013l0.004,0.026l0.005,0.033l0.002,0.018l0.004,0.022l0.006,0.038l0.003,0.021l0.002,0.008l0.004,0.029c0.012,0.071 0.024,0.142 0.036,0.213l0.005,0.027l0.001,0.008l0.005,0.023l0.007,0.038l0.003,0.02l0.003,0.017l0.006,0.034l0.006,0.027l0.002,0.011l0.004,0.023l0.009,0.048l0.021,0.109l0.013,0.065l0.005,0.021l0,0.003l0.004,0.02l0.009,0.044l0.005,0.021l0.002,0.012l0.007,0.031l0.007,0.032l0.002,0.013l0.005,0.02l0.009,0.043l0.005,0.021l0,0.004l0.005,0.02c0.016,0.075 0.033,0.149 0.051,0.223l0.004,0.021l0.002,0.007l0.006,0.027l0.01,0.038l0.003,0.015l0.004,0.015l0.009,0.039l0.007,0.026l0.001,0.007l0.005,0.019c0.019,0.076 0.038,0.151 0.058,0.227l0.004,0.015l0.001,0.003l0.006,0.023l0.011,0.044l0.005,0.016l0.003,0.012l0.009,0.034l0.009,0.031l0.002,0.01l0.005,0.017l0.013,0.048l0.008,0.029c0.022,0.078 0.044,0.156 0.067,0.233l0.005,0.017l0.002,0.007l0.009,0.029l0.011,0.037l0.003,0.012l0.005,0.014l0.012,0.042l0.008,0.025l0.001,0.004l0.005,0.014c0.023,0.077 0.047,0.152 0.071,0.228l0.004,0.013l0.002,0.004l0.008,0.025l0.014,0.043l0.004,0.013l0.004,0.011l0.012,0.036l0.01,0.03l0.002,0.007l0.005,0.015c0.026,0.079 0.054,0.158 0.081,0.237l0.008,0.021l0.017,0.049l0.005,0.014l0.003,0.007l0.011,0.032l0.013,0.035l0.003,0.009l0.005,0.013l0.016,0.046l0.009,0.025l0.003,0.008c0.029,0.076 0.057,0.152 0.087,0.228l0.004,0.012l0.002,0.004l0.01,0.027l0.016,0.041l0.004,0.011l0.004,0.01l0.016,0.04l0.011,0.027l0.002,0.005l0.004,0.012c0.031,0.076 0.062,0.153 0.093,0.229l0.012,0.028l0.019,0.046l0.005,0.012l0.003,0.008l0.015,0.034l0.014,0.032l0.003,0.007l0.005,0.012c0.042,0.101 0.086,0.201 0.131,0.3l0.005,0.011l0.002,0.005l0.013,0.029l0.017,0.037l0.004,0.009l0.005,0.011l0.019,0.041l0.012,0.026l0.005,0.011c0.035,0.075 0.07,0.149 0.105,0.223l0.016,0.033l0.021,0.043l0.005,0.01l0.004,0.008l0.017,0.036l0.015,0.03l0.002,0.005l0.006,0.011c0.048,0.098 0.097,0.195 0.147,0.292l0.006,0.011l0.002,0.005l0.016,0.031l0.018,0.034l0.004,0.008l0.005,0.01l0.023,0.043l0.015,0.029c0.039,0.073 0.079,0.146 0.118,0.219l0.02,0.036l0.022,0.039l0.005,0.009l0.005,0.009l0.02,0.037l0.016,0.027l0.007,0.013c0.054,0.095 0.108,0.19 0.164,0.285l0.005,0.009l0.004,0.006l0.019,0.032l0.018,0.032l0.004,0.006l0.006,0.009c0.056,0.094 0.113,0.188 0.17,0.281l0.024,0.039l0.023,0.036l0.005,0.007l0.005,0.009l0.024,0.038l0.016,0.025l0.006,0.009c0.045,0.07 0.09,0.14 0.135,0.21l0.018,0.026l0.027,0.041l0.006,0.009l0.004,0.007l0.022,0.033l0.019,0.028l0.003,0.005l0.006,0.008c0.061,0.091 0.123,0.181 0.185,0.271l0.006,0.009l0.003,0.004l0.02,0.028l0.023,0.032l0.004,0.007l0.006,0.008l0.028,0.04l0.019,0.027c0.049,0.067 0.098,0.135 0.147,0.202l0.023,0.031l0.027,0.037l0.006,0.008l0.005,0.006l0.025,0.034l0.02,0.026l0.002,0.003l0,0c1.012,1.347 2.21,2.545 3.556,3.557l0,0l0.01,0.008l0.023,0.017l0.024,0.018l0.013,0.009l0.017,0.013l0.031,0.023l0.016,0.012l0.006,0.004l0.022,0.016l0.042,0.032l0.087,0.062l0.038,0.027l0.022,0.017l0.008,0.005l0.019,0.014l0.028,0.019l0.016,0.012l0.016,0.011l0.027,0.019l0.02,0.014l0.009,0.006l0.023,0.016l0.036,0.026l0.012,0.008l0.024,0.016l0.052,0.036l0.041,0.028l0.027,0.019l0.006,0.003l0.015,0.01l0.031,0.021l0.021,0.015l0.013,0.009l0.023,0.015l0.023,0.015l0.013,0.009l0.022,0.014l0.032,0.021l0.014,0.009l0.005,0.004l0.03,0.02l0.04,0.026l0.043,0.028l0.034,0.021l0.013,0.009l0.034,0.022l0.026,0.016l0.011,0.007l0.02,0.013l0.025,0.016l0.018,0.011l0.02,0.012l0.027,0.018l0.018,0.01l0.009,0.006l0.029,0.018l0.035,0.022l0.011,0.006l0.081,0.05l0.036,0.022l0.032,0.019l0.008,0.005l0.016,0.009l0.028,0.018l0.023,0.013l0.017,0.01l0.024,0.014l0.02,0.012l0.014,0.009l0.027,0.015l0.031,0.019l0.013,0.007l0.005,0.003l0.04,0.023l0.035,0.021l0.035,0.019l0.042,0.024l0.005,0.003l0.012,0.007l0.031,0.017l0.028,0.016l0.014,0.008l0.02,0.012l0.024,0.013l0.018,0.01l0.025,0.013l0.027,0.016l0.016,0.008l0.009,0.005l0.036,0.02l0.033,0.018l0.007,0.004c0.027,0.015 0.054,0.029 0.08,0.043l0.008,0.004l0.032,0.018l0.036,0.018l0.011,0.006l0.016,0.009l0.026,0.014l0.024,0.012l0.021,0.011l0.024,0.013l0.019,0.009l0.014,0.008l0.032,0.016l0.031,0.016l0.01,0.005l0.005,0.003l0.057,0.029l0.024,0.012l0.03,0.015l0.046,0.023l0.008,0.004l0.012,0.006l0.029,0.014l0.03,0.015l0.017,0.009l0.021,0.01l0.022,0.011l0.019,0.009l0.028,0.014l0.028,0.013l0.013,0.007l0.01,0.004l0.044,0.021l0.03,0.015l0.005,0.002c0.028,0.013 0.056,0.026 0.084,0.04l0.009,0.004l0.03,0.014l0.037,0.017l0.014,0.006l0.017,0.008l0.024,0.011l0.025,0.011l0.025,0.012l0.024,0.011l0.017,0.007l0.014,0.007l0.038,0.017l0.03,0.013l0.008,0.004c0.029,0.013 0.057,0.025 0.086,0.038l0.005,0.002l0.028,0.012l0.047,0.021l0.01,0.004l0.014,0.006l0.027,0.011l0.03,0.013l0.021,0.009l0.021,0.009l0.02,0.009l0.019,0.008l0.034,0.014l0.027,0.011l0.012,0.005l0.009,0.004l0.055,0.022l0.024,0.011l0.014,0.005l0.07,0.029l0.007,0.002l0.01,0.004l0.028,0.012l0.038,0.015l0.017,0.006l0.017,0.007l0.023,0.009l0.025,0.01l0.029,0.011l0.025,0.01l0.015,0.006l0.013,0.005l0.045,0.017l0.028,0.011l0.007,0.002c0.029,0.012 0.059,0.023 0.089,0.034l0.006,0.002l0.027,0.01l0.047,0.018l0.013,0.005l0.014,0.005l0.026,0.009l0.03,0.011l0.025,0.009l0.022,0.008l0.018,0.006l0.019,0.007l0.038,0.014l0.027,0.009l0.01,0.004l0.008,0.003l0.071,0.024l0.014,0.005l0.018,0.007l0.065,0.022l0.009,0.003l0.011,0.004l0.027,0.009l0.038,0.012l0.02,0.007l0.019,0.006l0.021,0.007l0.024,0.008l0.033,0.011l0.025,0.008l0.014,0.005l0.013,0.004l0.052,0.017l0.025,0.008l0.005,0.001c0.031,0.01 0.062,0.02 0.092,0.029l0.007,0.003l0.027,0.008l0.047,0.014l0.015,0.005l0.016,0.005l0.024,0.007l0.03,0.009l0.028,0.008l0.023,0.007l0.016,0.005l0.018,0.006l0.044,0.012l0.027,0.008l0.008,0.003c0.031,0.009 0.063,0.018 0.094,0.027l0.003,0l0.021,0.006l0.061,0.018l0.012,0.003l0.011,0.003l0.026,0.007l0.037,0.01l0.023,0.007l0.02,0.005l0.02,0.005l0.024,0.007l0.037,0.01l0.025,0.006l0.012,0.004l0.012,0.003l0.062,0.016l0.021,0.005l0.003,0.001c0.032,0.008 0.063,0.016 0.095,0.024l0.008,0.002l0.026,0.007l0.046,0.011l0.019,0.005l0.016,0.004l0.023,0.005l0.029,0.007l0.032,0.008l0.023,0.006l0.016,0.003l0.017,0.004l0.049,0.012l0.026,0.006l0.006,0.001c0.033,0.008 0.065,0.015 0.097,0.022l0.004,0.001l0.023,0.005l0.058,0.013l0.014,0.003l0.013,0.003l0.025,0.005l0.036,0.008l0.026,0.006l0.021,0.004l0.019,0.004l0.022,0.005l0.042,0.009l0.025,0.005l0.011,0.002l0.011,0.002l0.075,0.015l0.012,0.003l0.09,0.017l0.01,0.002l0.009,0.002l0.026,0.005l0.044,0.008l0.021,0.004l0.018,0.004l0.021,0.003l0.029,0.006l0.035,0.006l0.024,0.004l0.014,0.003l0.016,0.003l0.056,0.01l0.024,0.004l0.005,0.001c0.033,0.005 0.066,0.011 0.099,0.016l0.005,0.001l0.024,0.004l0.056,0.009l0.016,0.003l0.014,0.002l0.024,0.004l0.035,0.005l0.03,0.005l0.022,0.003l0.017,0.003l0.021,0.003l0.047,0.007l0.025,0.004l0.009,0.001c0.033,0.005 0.067,0.01 0.1,0.015l0.09,0.012l0.012,0.001l0.01,0.002l0.026,0.003l0.042,0.006l0.025,0.003l0.019,0.002l0.02,0.003l0.027,0.003l0.039,0.005l0.025,0.003l0.012,0.002l0.015,0.001l0.065,0.008l0.019,0.002l0.004,0.001c0.034,0.004 0.067,0.007 0.101,0.011l0.007,0.001l0.024,0.002l0.053,0.006l0.019,0.002l0.016,0.001l0.023,0.003l0.034,0.003l0.032,0.003l0.023,0.003l0.016,0.001l0.02,0.002l0.052,0.005l0.024,0.002l0.008,0c0.034,0.004 0.068,0.006 0.102,0.009l0.003,0.001l0.017,0.001l0.069,0.005l0.015,0.002l0.011,0l0.025,0.002l0.041,0.003l0.028,0.002l0.019,0.002l0.019,0.001l0.026,0.002l0.044,0.003l0.024,0.001l0.011,0.001l0.014,0.001l0.076,0.004l0.015,0.001c0.034,0.002 0.069,0.004 0.103,0.006l0.008,0l0.025,0.001l0.05,0.003l0.022,0.001l0.017,0.001l0.022,0l0.032,0.002l0.037,0.001l0.023,0.001l0.014,0.001l0.019,0.001l0.058,0.001l0.023,0.001l0.005,0c0.035,0.002 0.07,0.003 0.105,0.003l0.004,0.001l0.02,0l0.064,0.001l0.017,0.001l0.013,0l0.024,0l0.04,0.001l0.03,0.001l0.021,0l0.017,0l0.025,0l0.048,0.001l0.025,0l0.009,0l0.012,0l0.093,0c0,0 81.579,0 81.579,0l0,10.246Zm-99.356,-28.023l-3.556,0l0,-35.556l10.667,0l0,49.328c-1.36,-1.055 -2.559,-2.307 -3.556,-3.712l0,-42.06l-3.555,0l0,32Z" style="fill:url(#_Linear3);"/><g transform="matrix(0.355556,0,0,0.355556,-596.944,-74.946)"><text x="1749.37px" y="340px" style="font-family:'Montserrat-Medium', 'Montserrat';font-weight:500;font-size:104.583px;fill:#000016;">l</text><text x="1770.71px" y="340px" style="font-family:'Montserrat-Medium', 'Montserrat';font-weight:500;font-size:104.583px;fill:#000016;">a</text><text x="1825.19px" y="340px" style="font-family:'Montserrat-Medium', 'Montserrat';font-weight:500;font-size:104.583px;fill:#000016;">d</text><text x="1889.2px" y="340px" style="font-family:'Montserrat-Medium', 'Montserrat';font-weight:500;font-size:104.583px;fill:#000016;">d</text><text x="1949.02px" y="340px" style="font-family:'Montserrat-Medium', 'Montserrat';font-weight:500;font-size:104.583px;fill:#000016;">r</text></g><defs><linearGradient id="_Linear2" x1="0" y1="0" x2="1" y2="0" gradientUnits="userSpaceOnUse" gradientTransform="matrix(277.78,-483.064,483.064,277.78,126.716,498.786)"><stop offset="0" style="stop-color:#190a0c;stop-opacity:1"/><stop offset="0.44" style="stop-color:#241517;stop-opacity:1"/><stop offset="0.58" style="stop-color:#403133;stop-opacity:1"/><stop offset="0.69" style="stop-color:#615254;stop-opacity:1"/><stop offset="0.83" style="stop-color:#8d8284;stop-opacity:1"/><stop offset="1" style="stop-color:#fff;stop-opacity:1"/></linearGradient><linearGradient id="_Linear3" x1="0" y1="0" x2="1" y2="0" gradientUnits="userSpaceOnUse" gradientTransform="matrix(81.4438,-81.4438,81.4438,81.4438,-23.15,81.4438)"><stop offset="0" style="stop-color:#ff002a;stop-opacity:1"/><stop offset="0.57" style="stop-color:#ff645f;stop-opacity:1"/><stop offset="1" style="stop-color:#ff9076;stop-opacity:1"/></linearGradient></defs></svg>