<?xml version="1.0" encoding="UTF-8" standalone="no"?><!DOCTYPE svg PUBLIC "-//W3C//DTD SVG 1.1//EN" "http://www.w3.org/Graphics/SVG/1.1/DTD/svg11.dtd"><svg width="100%" height="100%" viewBox="0 0 6 6" version="1.1" xmlns="http://www.w3.org/2000/svg" xmlns:xlink="http://www.w3.org/1999/xlink" xml:space="preserve" xmlns:serif="http://www.serif.com/" style="fill-rule:evenodd;clip-rule:evenodd;stroke-linejoin:round;stroke-miterlimit:1.41421;"><g><path d="M2.908,0.57l0.028,0.001l0.027,0.002l0.027,0.003l0.027,0.003l0.027,0.003l0.027,0.005l0.027,0.005l0.026,0.006l0.026,0.006l0.026,0.007l0.025,0.008l0.025,0.008l0.025,0.009l0.025,0.009l0.024,0.01l0.024,0.01l0.024,0.012l0.023,0.011l0.024,0.012l0.022,0.013l0.023,0.013l0.022,0.014l0.022,0.015l0.021,0.014l0.021,0.016l0.021,0.015l0.02,0.017l0.02,0.016l0.019,0.018l0.019,0.017l0.019,0.018l0.018,0.019l0.017,0.019l0.018,0.019l0.016,0.02l0.017,0.02l0.015,0.021l0.016,0.021l0.014,0.021l0.015,0.022l0.014,0.022l0.013,0.023l0.013,0.022l0.012,0.024l0.011,0.023l0.012,0.024l0.01,0.024l0.01,0.024l0.009,0.025l0.009,0.025l0.008,0.025l0.008,0.025l0.007,0.026l0.006,0.026l0.006,0.026l0.005,0.027l0.005,0.027l0.003,0.027l0.003,0.027l0.003,0.027l0.002,0.027l0.001,0.028l0,0.028l0,0.028l-0.001,0.028l-0.002,0.027l-0.003,0.027l-0.003,0.027l-0.003,0.027l-0.005,0.027l-0.005,0.027l-0.006,0.026l-0.006,0.026l-0.007,0.026l-0.008,0.025l-0.008,0.025l-0.009,0.025l-0.009,0.025l-0.01,0.024l-0.01,0.024l-0.012,0.024l-0.011,0.023l-0.012,0.024l-0.013,0.022l-0.013,0.023l-0.014,0.022l-0.015,0.022l-0.014,0.021l-0.016,0.021l-0.015,0.021l-0.017,0.02l-0.016,0.02l-0.018,0.019l-0.017,0.019l-0.018,0.019l-0.019,0.018l-0.019,0.017l-0.019,0.018l-0.02,0.016l-0.02,0.017l-0.021,0.015l-0.021,0.016l-0.021,0.014l-0.022,0.015l-0.022,0.014l-0.023,0.013l-0.022,0.013l-0.024,0.012l-0.023,0.011l-0.024,0.012l-0.024,0.01l-0.024,0.01l-0.025,0.009l-0.025,0.009l-0.025,0.008l-0.025,0.008l-0.026,0.007l-0.026,0.006l-0.026,0.006l-0.027,0.005l-0.027,0.005l-0.027,0.003l-0.027,0.003l-0.027,0.003l-0.027,0.002l-0.028,0.001l-0.028,0l-0.028,0l-0.028,-0.001l-0.027,-0.002l-0.027,-0.003l-0.027,-0.003l-0.027,-0.003l-0.027,-0.005l-0.027,-0.005l-0.026,-0.006l-0.026,-0.006l-0.026,-0.007l-0.025,-0.008l-0.025,-0.008l-0.025,-0.009l-0.025,-0.009l-0.024,-0.01l-0.024,-0.01l-0.024,-0.012l-0.023,-0.011l-0.024,-0.012l-0.022,-0.013l-0.023,-0.013l-0.022,-0.014l-0.022,-0.015l-0.021,-0.014l-0.021,-0.016l-0.021,-0.015l-0.02,-0.017l-0.02,-0.016l-0.019,-0.018l-0.019,-0.017l-0.019,-0.018l-0.018,-0.019l-0.017,-0.019l-0.018,-0.019l-0.016,-0.02l-0.017,-0.02l-0.015,-0.021l-0.016,-0.021l-0.014,-0.021l-0.015,-0.022l-0.014,-0.022l-0.013,-0.023l-0.013,-0.022l-0.012,-0.024l-0.011,-0.023l-0.012,-0.024l-0.01,-0.024l-0.01,-0.024l-0.009,-0.025l-0.009,-0.025l-0.008,-0.025l-0.008,-0.025l-0.007,-0.026l-0.006,-0.026l-0.006,-0.026l-0.005,-0.027l-0.005,-0.027l-0.003,-0.027l-0.003,-0.027l-0.003,-0.027l-0.002,-0.027l-0.001,-0.028l0,-0.028l0,-0.028l0.001,-0.028l0.002,-0.027l0.003,-0.027l0.003,-0.027l0.003,-0.027l0.005,-0.027l0.005,-0.027l0.006,-0.026l0.006,-0.026l0.007,-0.026l0.008,-0.025l0.008,-0.025l0.009,-0.025l0.009,-0.025l0.01,-0.024l0.01,-0.024l0.012,-0.024l0.011,-0.023l0.012,-0.024l0.013,-0.022l0.013,-0.023l0.014,-0.022l0.015,-0.022l0.014,-0.021l0.016,-0.021l0.015,-0.021l0.017,-0.02l0.016,-0.02l0.018,-0.019l0.017,-0.019l0.018,-0.019l0.019,-0.018l0.019,-0.017l0.019,-0.018l0.02,-0.016l0.02,-0.017l0.021,-0.015l0.021,-0.016l0.021,-0.014l0.022,-0.015l0.022,-0.014l0.023,-0.013l0.022,-0.013l0.024,-0.012l0.023,-0.011l0.024,-0.012l0.024,-0.01l0.024,-0.01l0.025,-0.009l0.025,-0.009l0.025,-0.008l0.025,-0.008l0.026,-0.007l0.026,-0.006l0.026,-0.006l0.027,-0.005l0.027,-0.005l0.027,-0.003l0.027,-0.003l0.027,-0.003l0.027,-0.002l0.028,-0.001l0.028,0l0.028,0Zm-0.044,0.48l-0.015,0.001l-0.016,0.001l-0.015,0.001l-0.015,0.002l-0.015,0.002l-0.015,0.002l-0.014,0.003l-0.015,0.003l-0.014,0.004l-0.014,0.004l-0.014,0.004l-0.014,0.004l-0.014,0.005l-0.014,0.005l-0.013,0.006l-0.013,0.006l-0.014,0.006l-0.013,0.006l-0.012,0.007l-0.013,0.007l-0.013,0.008l-0.012,0.007l-0.012,0.008l-0.012,0.009l-0.011,0.008l-0.012,0.009l-0.011,0.009l-0.011,0.009l-0.011,0.01l-0.011,0.01l-0.01,0.01l-0.01,0.01l-0.01,0.011l-0.01,0.011l-0.009,0.011l-0.009,0.011l-0.009,0.012l-0.008,0.011l-0.009,0.012l-0.008,0.012l-0.007,0.013l-0.008,0.012l-0.007,0.013l-0.007,0.012l-0.006,0.013l-0.006,0.014l-0.006,0.013l-0.005,0.013l-0.006,0.014l-0.005,0.014l-0.004,0.014l-0.004,0.014l-0.004,0.014l-0.004,0.014l-0.003,0.015l-0.003,0.014l-0.002,0.015l-0.002,0.015l-0.002,0.015l-0.001,0.015l-0.001,0.016l-0.001,0.015l0,0.016l0,0.016l0.001,0.015l0.001,0.016l0.001,0.015l0.002,0.015l0.002,0.015l0.002,0.015l0.003,0.014l0.003,0.015l0.004,0.014l0.004,0.014l0.004,0.014l0.004,0.014l0.005,0.014l0.006,0.014l0.005,0.013l0.006,0.013l0.006,0.014l0.006,0.013l0.007,0.012l0.007,0.013l0.008,0.012l0.007,0.013l0.008,0.012l0.009,0.012l0.008,0.011l0.009,0.012l0.009,0.011l0.009,0.011l0.01,0.011l0.01,0.011l0.01,0.01l0.01,0.01l0.011,0.01l0.011,0.01l0.011,0.009l0.011,0.009l0.012,0.009l0.011,0.008l0.012,0.009l0.012,0.008l0.012,0.007l0.013,0.008l0.013,0.007l0.012,0.007l0.013,0.006l0.014,0.006l0.013,0.006l0.013,0.006l0.014,0.005l0.014,0.005l0.014,0.004l0.014,0.004l0.014,0.004l0.014,0.004l0.015,0.003l0.014,0.003l0.015,0.002l0.015,0.002l0.015,0.002l0.015,0.001l0.016,0.001l0.015,0.001l0.016,0l0.016,0l0.015,-0.001l0.016,-0.001l0.015,-0.001l0.015,-0.002l0.015,-0.002l0.015,-0.002l0.014,-0.003l0.015,-0.003l0.014,-0.004l0.014,-0.004l0.014,-0.004l0.014,-0.004l0.014,-0.005l0.014,-0.005l0.013,-0.006l0.013,-0.006l0.014,-0.006l0.013,-0.006l0.012,-0.007l0.013,-0.007l0.013,-0.008l0.012,-0.007l0.012,-0.008l0.012,-0.009l0.011,-0.008l0.012,-0.009l0.011,-0.009l0.011,-0.009l0.011,-0.01l0.011,-0.01l0.01,-0.01l0.01,-0.01l0.01,-0.011l0.01,-0.011l0.009,-0.011l0.009,-0.011l0.009,-0.012l0.008,-0.011l0.009,-0.012l0.008,-0.012l0.007,-0.012l0.008,-0.013l0.007,-0.013l0.007,-0.012l0.006,-0.013l0.006,-0.014l0.006,-0.013l0.005,-0.013l0.006,-0.014l0.005,-0.014l0.004,-0.014l0.004,-0.014l0.004,-0.014l0.004,-0.014l0.003,-0.015l0.003,-0.014l0.002,-0.015l0.002,-0.015l0.002,-0.015l0.001,-0.015l0.001,-0.016l0.001,-0.015l0,-0.016l0,-0.016l-0.001,-0.015l-0.001,-0.016l-0.001,-0.015l-0.002,-0.015l-0.002,-0.015l-0.002,-0.015l-0.003,-0.014l-0.003,-0.015l-0.004,-0.014l-0.004,-0.014l-0.004,-0.014l-0.004,-0.014l-0.005,-0.014l-0.006,-0.014l-0.005,-0.013l-0.006,-0.013l-0.006,-0.014l-0.006,-0.013l-0.007,-0.012l-0.007,-0.013l-0.008,-0.013l-0.007,-0.012l-0.008,-0.012l-0.009,-0.012l-0.008,-0.011l-0.009,-0.012l-0.009,-0.011l-0.009,-0.011l-0.01,-0.011l-0.01,-0.011l-0.01,-0.01l-0.01,-0.01l-0.011,-0.01l-0.011,-0.01l-0.011,-0.009l-0.011,-0.009l-0.012,-0.009l-0.011,-0.008l-0.012,-0.009l-0.012,-0.008l-0.012,-0.007l-0.013,-0.008l-0.013,-0.007l-0.012,-0.007l-0.013,-0.006l-0.014,-0.006l-0.013,-0.006l-0.013,-0.006l-0.014,-0.005l-0.014,-0.005l-0.014,-0.004l-0.014,-0.004l-0.014,-0.004l-0.014,-0.004l-0.015,-0.003l-0.014,-0.003l-0.015,-0.002l-0.015,-0.002l-0.015,-0.002l-0.015,-0.001l-0.016,-0.001l-0.015,-0.001l-0.016,0l-0.016,0Z"/><path d="M2.907,2.969l0.027,0.001l0.026,0.001l0.027,0.001l0.027,0.002l0.027,0.003l0.026,0.003l0.027,0.003l0.027,0.004l0.027,0.004l0.027,0.005l0.027,0.005l0.027,0.005l0.026,0.006l0.027,0.007l0.027,0.007l0.027,0.007l0.028,0.008l0.027,0.008l0.027,0.008l0.027,0.009l0.027,0.01l0.027,0.01l0.028,0.01l0.027,0.011l0.027,0.011l0.028,0.012l0.027,0.012l0.028,0.012l0.028,0.013l0.027,0.014l0.028,0.014l0.028,0.014l0.028,0.015l0.028,0.015l0.028,0.016l0.028,0.016l0.028,0.016l0.028,0.017l0.029,0.018l0.028,0.017l0.028,0.019l0.029,0.018l0.029,0.019l0.028,0.02l0.029,0.02l0.029,0.02l0.029,0.021l0.029,0.022l0.029,0.021l0.03,0.023l0.029,0.022l0.03,0.023l0.029,0.024l0.03,0.024l0.03,0.024l0.03,0.025l0.03,0.025l0.03,0.026l0.031,0.026l0.03,0.027l0.031,0.027l0.03,0.027l0.031,0.028l-0.36,1.5l-2.88,0l-0.36,-1.5l0.031,-0.028l0.031,-0.027l0.03,-0.027l0.031,-0.027l0.03,-0.026l0.03,-0.026l0.03,-0.025l0.03,-0.025l0.03,-0.025l0.03,-0.024l0.029,-0.023l0.03,-0.024l0.029,-0.022l0.03,-0.023l0.029,-0.021l0.029,-0.022l0.029,-0.021l0.029,-0.02l0.029,-0.02l0.029,-0.02l0.028,-0.019l0.029,-0.019l0.028,-0.018l0.029,-0.018l0.028,-0.017l0.028,-0.017l0.028,-0.017l0.028,-0.016l0.028,-0.015l0.028,-0.015l0.028,-0.015l0.028,-0.014l0.028,-0.014l0.028,-0.014l0.027,-0.013l0.028,-0.012l0.027,-0.012l0.028,-0.012l0.027,-0.011l0.027,-0.011l0.028,-0.01l0.027,-0.01l0.027,-0.01l0.027,-0.009l0.028,-0.008l0.027,-0.008l0.027,-0.008l0.027,-0.007l0.027,-0.007l0.027,-0.006l0.027,-0.006l0.027,-0.006l0.026,-0.005l0.027,-0.004l0.027,-0.005l0.027,-0.003l0.027,-0.004l0.027,-0.002l0.026,-0.003l0.027,-0.002l0.027,-0.001l0.027,-0.001l0.026,-0.001l0.027,0l0.027,0Zm-0.046,0.48l-0.019,0l-0.019,0.001l-0.019,0.001l-0.019,0.002l-0.019,0.001l-0.019,0.002l-0.019,0.003l-0.019,0.002l-0.019,0.003l-0.02,0.004l-0.019,0.003l-0.02,0.004l-0.02,0.005l-0.019,0.004l-0.02,0.005l-0.021,0.006l-0.02,0.005l-0.02,0.007l-0.021,0.006l-0.021,0.007l-0.02,0.007l-0.021,0.008l-0.022,0.008l-0.021,0.008l-0.022,0.009l-0.021,0.009l-0.022,0.01l-0.022,0.01l-0.023,0.011l-0.022,0.01l-0.023,0.012l-0.023,0.012l-0.023,0.012l-0.023,0.012l-0.024,0.013l-0.023,0.014l-0.024,0.014l-0.024,0.014l-0.024,0.015l-0.025,0.015l-0.024,0.016l-0.025,0.016l-0.025,0.017l-0.025,0.017l-0.025,0.018l-0.026,0.018l-0.026,0.019l-0.026,0.019l-0.026,0.019l-0.026,0.02l-0.027,0.02l-0.026,0.021l-0.027,0.022l-0.027,0.022l-0.027,0.022l-0.014,0.011l0.204,0.85l2.123,0l0.203,-0.849l-0.013,-0.011l-0.027,-0.022l-0.027,-0.022l-0.027,-0.022l-0.027,-0.02l-0.027,-0.021l-0.026,-0.02l-0.026,-0.019l-0.026,-0.019l-0.026,-0.019l-0.025,-0.018l-0.026,-0.017l-0.025,-0.018l-0.025,-0.016l-0.025,-0.017l-0.024,-0.015l-0.025,-0.016l-0.024,-0.014l-0.024,-0.015l-0.024,-0.014l-0.023,-0.013l-0.024,-0.014l-0.023,-0.012l-0.023,-0.012l-0.023,-0.012l-0.023,-0.011l-0.022,-0.011l-0.023,-0.011l-0.022,-0.01l-0.022,-0.01l-0.022,-0.009l-0.021,-0.009l-0.022,-0.008l-0.021,-0.008l-0.021,-0.008l-0.021,-0.007l-0.021,-0.007l-0.02,-0.007l-0.021,-0.006l-0.02,-0.006l-0.02,-0.005l-0.02,-0.005l-0.02,-0.005l-0.02,-0.004l-0.019,-0.004l-0.02,-0.004l-0.019,-0.003l-0.019,-0.003l-0.02,-0.003l-0.019,-0.002l-0.019,-0.002l-0.019,-0.002l-0.019,-0.002l-0.019,-0.001l-0.019,-0.001l-0.018,0l-0.019,0l-0.019,0Z"/></g></svg>