<?xml version="1.0" encoding="UTF-8" standalone="no"?><!DOCTYPE svg PUBLIC "-//W3C//DTD SVG 1.1//EN" "http://www.w3.org/Graphics/SVG/1.1/DTD/svg11.dtd"><svg width="100%" height="100%" viewBox="0 0 6 6" version="1.1" xmlns="http://www.w3.org/2000/svg" xmlns:xlink="http://www.w3.org/1999/xlink" xml:space="preserve" xmlns:serif="http://www.serif.com/" style="fill-rule:evenodd;clip-rule:evenodd;stroke-linejoin:round;stroke-miterlimit:1.41421;"><path d="M2.303,0.504l0.023,0.001l0.024,0.001l0.023,0.001l0.023,0.001l0.022,0.002l0.023,0.001l0.023,0.003l0.023,0.002l0.022,0.003l0.023,0.003l0.022,0.003l0.022,0.004l0.022,0.003l0.023,0.005l0.022,0.004l0.021,0.005l0.022,0.004l0.022,0.006l0.022,0.005l0.021,0.006l0.022,0.006l0.021,0.006l0.021,0.006l0.021,0.007l0.021,0.007l0.021,0.007l0.021,0.008l0.02,0.007l0.021,0.008l0.02,0.008l0.02,0.009l0.02,0.008l0.02,0.009l0.02,0.01l0.02,0.009l0.02,0.009l0.019,0.01l0.019,0.01l0.02,0.011l0.019,0.01l0.019,0.011l0.018,0.011l0.019,0.011l0.019,0.011l0.018,0.012l0.018,0.012l0.018,0.012l0.018,0.012l0.018,0.013l0.017,0.012l0.018,0.013l0.017,0.013l0.017,0.013l0.017,0.014l0.017,0.014l0.016,0.013l0.017,0.014l0.016,0.015l0.016,0.014l0.016,0.015l0.016,0.015l0.015,0.015l0.016,0.015l0.015,0.015l0.015,0.016l0.015,0.015l0.014,0.016l0.015,0.016l0.014,0.017l0.014,0.016l0.014,0.017l0.013,0.016l0.014,0.017l0.013,0.017l0.013,0.018l0.013,0.017l0.013,0.018l0.012,0.017l0.012,0.018l0.012,0.018l0.012,0.018l0.012,0.019l0.011,0.018l0.011,0.019l0.011,0.019l0.011,0.019l0.011,0.019l0.01,0.019l0.01,0.019l0.01,0.02l0.009,0.019l0.01,0.02l0.009,0.02l0.009,0.02l0.008,0.02l0.009,0.02l0.008,0.021l0.008,0.02l0.008,0.021l0.007,0.02l0.007,0.021l0.007,0.021l0.007,0.021l0.006,0.021l0.007,0.022l0.006,0.021l0.005,0.022l0.006,0.021l0.005,0.022l0.005,0.022l0.004,0.022l0.005,0.022l0.004,0.022l0.004,0.022l0.003,0.022l0.004,0.023l0.003,0.022l0.002,0.023l0.003,0.022l0.002,0.023l0.002,0.023l0.001,0.023l0.002,0.023l0.001,0.023l0,0.023l0.001,0.023l0,0.023l0,0.024l-0.001,0.023l0,0.023l-0.001,0.023l-0.002,0.023l-0.001,0.023l-0.002,0.022l-0.002,0.023l-0.003,0.023l-0.002,0.022l-0.003,0.023l-0.004,0.022l-0.003,0.023l-0.004,0.022l-0.004,0.022l-0.005,0.022l-0.004,0.022l-0.005,0.022l-0.005,0.021l-0.006,0.022l-0.005,0.021l-0.006,0.022l-0.007,0.021l-0.006,0.021l-0.007,0.021l-0.007,0.021l-0.007,0.021l-0.007,0.021l-0.008,0.021l-0.008,0.02l-0.008,0.02l-0.009,0.021l-0.008,0.02l-0.009,0.02l-0.009,0.02l-0.01,0.019l-0.009,0.02l-0.01,0.019l-0.01,0.02l-0.01,0.019l-0.011,0.019l-0.011,0.019l-0.011,0.019l-0.011,0.018l-0.011,0.019l-0.012,0.018l-0.012,0.018l-0.012,0.018l-0.012,0.018l-0.012,0.018l-0.013,0.018l-0.013,0.017l-0.013,0.017l-0.013,0.017l-0.014,0.017l-0.013,0.017l-0.014,0.017l-0.014,0.016l-0.014,0.016l-0.015,0.016l-0.014,0.016l-0.015,0.016l-0.015,0.015l-0.015,0.016l-0.016,0.015l-0.015,0.015l-0.016,0.015l-0.016,0.014l-0.016,0.015l-0.016,0.014l-0.017,0.014l-0.016,0.014l-0.017,0.014l-0.017,0.013l-0.017,0.013l-0.017,0.013l-0.018,0.013l-0.017,0.013l-0.018,0.012l-0.018,0.013l-0.018,0.012l-0.018,0.012l-0.018,0.011l-0.019,0.012l-0.019,0.011l-0.018,0.011l-0.019,0.01l-0.019,0.011l-0.02,0.01l-0.019,0.01l-0.019,0.01l-0.02,0.01l-0.02,0.009l-0.02,0.009l-0.02,0.009l-0.02,0.009l-0.02,0.008l-0.02,0.008l-0.021,0.008l-0.02,0.008l-0.021,0.007l-0.021,0.008l-0.021,0.007l-0.021,0.006l-0.021,0.007l-0.021,0.006l-0.022,0.006l-0.021,0.006l-0.022,0.005l-0.022,0.005l-0.022,0.005l-0.021,0.005l-0.022,0.004l-0.023,0.004l-0.022,0.004l-0.022,0.004l-0.022,0.003l-0.023,0.003l-0.022,0.003l-0.023,0.002l-0.023,0.002l-0.023,0.002l-0.022,0.002l-0.023,0.001l-0.023,0.001l-0.024,0.001l-0.023,0l-0.023,0l-0.023,0l-0.023,0l-0.024,-0.001l-0.023,-0.001l-0.023,-0.001l-0.022,-0.002l-0.023,-0.002l-0.023,-0.002l-0.023,-0.002l-0.022,-0.003l-0.023,-0.003l-0.022,-0.003l-0.022,-0.004l-0.022,-0.004l-0.023,-0.004l-0.022,-0.004l-0.021,-0.005l-0.022,-0.005l-0.022,-0.005l-0.022,-0.005l-0.021,-0.006l-0.022,-0.006l-0.021,-0.006l-0.021,-0.007l-0.021,-0.006l-0.021,-0.007l-0.021,-0.008l-0.021,-0.007l-0.02,-0.008l-0.021,-0.008l-0.02,-0.008l-0.02,-0.008l-0.02,-0.009l-0.02,-0.009l-0.02,-0.009l-0.02,-0.009l-0.02,-0.01l-0.019,-0.01l-0.019,-0.01l-0.02,-0.01l-0.019,-0.011l-0.019,-0.01l-0.018,-0.011l-0.019,-0.011l-0.019,-0.012l-0.018,-0.011l-0.018,-0.012l-0.018,-0.012l-0.018,-0.013l-0.018,-0.012l-0.017,-0.013l-0.018,-0.013l-0.017,-0.013l-0.017,-0.013l-0.017,-0.013l-0.017,-0.014l-0.016,-0.014l-0.017,-0.014l-0.016,-0.014l-0.016,-0.015l-0.016,-0.014l-0.016,-0.015l-0.015,-0.015l-0.016,-0.015l-0.015,-0.016l-0.015,-0.015l-0.015,-0.016l-0.014,-0.016l-0.015,-0.016l-0.014,-0.016l-0.014,-0.016l-0.014,-0.017l-0.013,-0.017l-0.014,-0.017l-0.013,-0.017l-0.013,-0.017l-0.013,-0.017l-0.013,-0.018l-0.012,-0.018l-0.012,-0.018l-0.012,-0.018l-0.012,-0.018l-0.012,-0.018l-0.011,-0.019l-0.011,-0.018l-0.011,-0.019l-0.011,-0.019l-0.011,-0.019l-0.01,-0.019l-0.01,-0.02l-0.01,-0.019l-0.009,-0.02l-0.01,-0.019l-0.009,-0.02l-0.009,-0.02l-0.008,-0.02l-0.009,-0.021l-0.008,-0.02l-0.008,-0.02l-0.008,-0.021l-0.007,-0.021l-0.007,-0.021l-0.007,-0.021l-0.007,-0.021l-0.006,-0.021l-0.007,-0.021l-0.006,-0.022l-0.005,-0.021l-0.006,-0.022l-0.005,-0.021l-0.005,-0.022l-0.004,-0.022l-0.005,-0.022l-0.004,-0.022l-0.004,-0.022l-0.003,-0.023l-0.004,-0.022l-0.003,-0.023l-0.002,-0.022l-0.003,-0.023l-0.002,-0.023l-0.002,-0.022l-0.001,-0.023l-0.002,-0.023l-0.001,-0.023l0,-0.023l-0.001,-0.023l0,-0.024l0,-0.023l0.001,-0.023l0,-0.023l0.001,-0.023l0.002,-0.023l0.001,-0.023l0.002,-0.023l0.002,-0.023l0.003,-0.022l0.002,-0.023l0.003,-0.022l0.004,-0.023l0.003,-0.022l0.004,-0.022l0.004,-0.022l0.005,-0.022l0.004,-0.022l0.005,-0.022l0.005,-0.022l0.006,-0.021l0.005,-0.022l0.006,-0.021l0.007,-0.022l0.006,-0.021l0.007,-0.021l0.007,-0.021l0.007,-0.021l0.007,-0.02l0.008,-0.021l0.008,-0.02l0.008,-0.021l0.009,-0.02l0.008,-0.02l0.009,-0.02l0.009,-0.02l0.01,-0.02l0.009,-0.019l0.01,-0.02l0.01,-0.019l0.01,-0.019l0.011,-0.019l0.011,-0.019l0.011,-0.019l0.011,-0.019l0.011,-0.018l0.012,-0.019l0.012,-0.018l0.012,-0.018l0.012,-0.018l0.012,-0.017l0.013,-0.018l0.013,-0.017l0.013,-0.018l0.013,-0.017l0.014,-0.017l0.013,-0.016l0.014,-0.017l0.014,-0.016l0.014,-0.017l0.015,-0.016l0.014,-0.016l0.015,-0.015l0.015,-0.016l0.015,-0.015l0.016,-0.015l0.015,-0.015l0.016,-0.015l0.016,-0.015l0.016,-0.014l0.016,-0.015l0.017,-0.014l0.016,-0.013l0.017,-0.014l0.017,-0.014l0.017,-0.013l0.017,-0.013l0.018,-0.013l0.017,-0.012l0.018,-0.013l0.018,-0.012l0.018,-0.012l0.018,-0.012l0.018,-0.012l0.019,-0.011l0.019,-0.011l0.018,-0.011l0.019,-0.011l0.019,-0.01l0.02,-0.011l0.019,-0.01l0.019,-0.01l0.02,-0.009l0.02,-0.009l0.02,-0.01l0.02,-0.009l0.02,-0.008l0.02,-0.009l0.02,-0.008l0.021,-0.008l0.02,-0.007l0.021,-0.008l0.021,-0.007l0.021,-0.007l0.021,-0.007l0.021,-0.006l0.021,-0.006l0.022,-0.006l0.021,-0.006l0.022,-0.005l0.022,-0.006l0.022,-0.004l0.021,-0.005l0.022,-0.004l0.023,-0.005l0.022,-0.003l0.022,-0.004l0.022,-0.003l0.023,-0.003l0.022,-0.003l0.023,-0.002l0.023,-0.003l0.023,-0.001l0.022,-0.002l0.023,-0.001l0.023,-0.001l0.024,-0.001l0.023,-0.001l0.023,0l0.023,0Zm-0.04,0.48l-0.017,0.001l-0.017,0l-0.017,0.001l-0.017,0.001l-0.017,0.001l-0.017,0.002l-0.016,0.001l-0.017,0.002l-0.017,0.002l-0.016,0.002l-0.016,0.003l-0.017,0.002l-0.016,0.003l-0.016,0.003l-0.016,0.003l-0.016,0.004l-0.016,0.003l-0.016,0.004l-0.016,0.004l-0.016,0.004l-0.015,0.004l-0.016,0.005l-0.015,0.005l-0.016,0.004l-0.015,0.006l-0.015,0.005l-0.015,0.005l-0.016,0.006l-0.015,0.006l-0.014,0.006l-0.015,0.006l-0.015,0.006l-0.015,0.007l-0.014,0.006l-0.015,0.007l-0.014,0.007l-0.014,0.007l-0.014,0.008l-0.014,0.007l-0.014,0.008l-0.014,0.008l-0.014,0.008l-0.014,0.008l-0.013,0.009l-0.014,0.008l-0.013,0.009l-0.013,0.009l-0.013,0.009l-0.013,0.009l-0.013,0.009l-0.013,0.009l-0.013,0.01l-0.012,0.01l-0.013,0.01l-0.012,0.01l-0.012,0.01l-0.012,0.01l-0.012,0.011l-0.012,0.01l-0.012,0.011l-0.011,0.011l-0.012,0.011l-0.011,0.011l-0.011,0.011l-0.011,0.012l-0.011,0.011l-0.011,0.012l-0.011,0.012l-0.01,0.012l-0.01,0.012l-0.011,0.012l-0.01,0.012l-0.009,0.013l-0.01,0.012l-0.01,0.013l-0.009,0.013l-0.01,0.013l-0.009,0.013l-0.009,0.013l-0.009,0.013l-0.008,0.014l-0.009,0.013l-0.008,0.014l-0.008,0.013l-0.008,0.014l-0.008,0.014l-0.008,0.014l-0.007,0.014l-0.008,0.014l-0.007,0.014l-0.007,0.015l-0.007,0.014l-0.007,0.015l-0.006,0.014l-0.006,0.015l-0.007,0.015l-0.006,0.015l-0.005,0.015l-0.006,0.015l-0.005,0.015l-0.006,0.015l-0.005,0.016l-0.005,0.015l-0.004,0.015l-0.005,0.016l-0.004,0.016l-0.004,0.015l-0.004,0.016l-0.004,0.016l-0.004,0.016l-0.003,0.016l-0.003,0.016l-0.003,0.016l-0.003,0.017l-0.003,0.016l-0.002,0.016l-0.002,0.017l-0.002,0.016l-0.002,0.017l-0.002,0.017l-0.001,0.016l-0.001,0.017l-0.001,0.017l-0.001,0.017l-0.001,0.017l0,0.017l0,0.017l0,0.017l0,0.018l0.001,0.017l0.001,0.017l0.001,0.016l0.001,0.017l0.001,0.017l0.002,0.017l0.002,0.016l0.002,0.017l0.002,0.016l0.002,0.017l0.003,0.016l0.003,0.016l0.003,0.016l0.003,0.017l0.003,0.016l0.004,0.016l0.004,0.015l0.004,0.016l0.004,0.016l0.004,0.016l0.005,0.015l0.004,0.016l0.005,0.015l0.005,0.015l0.006,0.016l0.005,0.015l0.006,0.015l0.005,0.015l0.006,0.015l0.007,0.015l0.006,0.014l0.006,0.015l0.007,0.014l0.007,0.015l0.007,0.014l0.007,0.015l0.008,0.014l0.007,0.014l0.008,0.014l0.008,0.014l0.008,0.013l0.008,0.014l0.008,0.014l0.009,0.013l0.008,0.013l0.009,0.014l0.009,0.013l0.009,0.013l0.01,0.013l0.009,0.012l0.01,0.013l0.01,0.013l0.009,0.012l0.01,0.012l0.011,0.013l0.01,0.012l0.01,0.012l0.011,0.011l0.011,0.012l0.011,0.012l0.011,0.011l0.011,0.011l0.011,0.012l0.012,0.011l0.011,0.01l0.012,0.011l0.012,0.011l0.012,0.01l0.012,0.011l0.012,0.01l0.012,0.01l0.013,0.01l0.012,0.01l0.013,0.009l0.013,0.01l0.013,0.009l0.013,0.009l0.013,0.009l0.013,0.009l0.013,0.009l0.014,0.008l0.013,0.008l0.014,0.009l0.014,0.008l0.014,0.007l0.014,0.008l0.014,0.008l0.014,0.007l0.014,0.007l0.014,0.007l0.015,0.007l0.014,0.007l0.015,0.006l0.015,0.007l0.015,0.006l0.014,0.006l0.015,0.006l0.015,0.005l0.016,0.006l0.015,0.005l0.015,0.005l0.016,0.005l0.015,0.005l0.016,0.004l0.015,0.005l0.016,0.004l0.016,0.004l0.016,0.003l0.016,0.004l0.016,0.003l0.016,0.004l0.016,0.003l0.016,0.002l0.017,0.003l0.016,0.002l0.017,0.003l0.016,0.002l0.017,0.001l0.016,0.002l0.017,0.001l0.017,0.002l0.017,0.001l0.017,0l0.017,0.001l0.017,0l0.017,0l0.017,0l0.017,0l0.017,-0.001l0.017,0l0.017,-0.001l0.017,-0.002l0.017,-0.001l0.016,-0.002l0.017,-0.001l0.016,-0.002l0.017,-0.003l0.016,-0.002l0.017,-0.003l0.016,-0.002l0.016,-0.003l0.016,-0.004l0.016,-0.003l0.016,-0.004l0.016,-0.003l0.016,-0.004l0.016,-0.004l0.015,-0.005l0.016,-0.004l0.015,-0.005l0.016,-0.005l0.015,-0.005l0.015,-0.005l0.015,-0.006l0.016,-0.005l0.015,-0.006l0.014,-0.006l0.015,-0.006l0.015,-0.007l0.015,-0.006l0.014,-0.007l0.015,-0.007l0.014,-0.007l0.014,-0.007l0.014,-0.007l0.014,-0.008l0.014,-0.008l0.014,-0.007l0.014,-0.008l0.014,-0.009l0.013,-0.008l0.014,-0.009l0.013,-0.008l0.013,-0.009l0.013,-0.009l0.013,-0.009l0.013,-0.009l0.013,-0.01l0.013,-0.009l0.012,-0.01l0.013,-0.01l0.012,-0.01l0.012,-0.01l0.012,-0.011l0.012,-0.01l0.012,-0.011l0.012,-0.011l0.011,-0.01l0.012,-0.011l0.011,-0.012l0.011,-0.011l0.011,-0.011l0.011,-0.012l0.011,-0.012l0.011,-0.011l0.01,-0.012l0.01,-0.012l0.011,-0.013l0.01,-0.012l0.009,-0.012l0.01,-0.013l0.01,-0.013l0.009,-0.012l0.01,-0.013l0.009,-0.013l0.009,-0.013l0.009,-0.014l0.008,-0.013l0.009,-0.013l0.008,-0.014l0.008,-0.014l0.008,-0.013l0.008,-0.014l0.008,-0.014l0.007,-0.014l0.008,-0.014l0.007,-0.015l0.007,-0.014l0.007,-0.015l0.007,-0.014l0.006,-0.015l0.006,-0.014l0.007,-0.015l0.006,-0.015l0.005,-0.015l0.006,-0.015l0.005,-0.015l0.006,-0.016l0.005,-0.015l0.005,-0.015l0.004,-0.016l0.005,-0.015l0.004,-0.016l0.004,-0.016l0.004,-0.016l0.004,-0.015l0.004,-0.016l0.003,-0.016l0.003,-0.017l0.003,-0.016l0.003,-0.016l0.003,-0.016l0.002,-0.017l0.002,-0.016l0.002,-0.017l0.002,-0.016l0.002,-0.017l0.001,-0.017l0.001,-0.017l0.001,-0.016l0.001,-0.017l0.001,-0.017l0,-0.018l0,-0.017l0,-0.017l0,-0.017l-0.001,-0.017l-0.001,-0.017l-0.001,-0.017l-0.001,-0.017l-0.001,-0.016l-0.002,-0.017l-0.002,-0.017l-0.002,-0.016l-0.002,-0.017l-0.002,-0.016l-0.003,-0.016l-0.003,-0.017l-0.003,-0.016l-0.003,-0.016l-0.003,-0.016l-0.004,-0.016l-0.004,-0.016l-0.004,-0.016l-0.004,-0.015l-0.004,-0.016l-0.005,-0.016l-0.004,-0.015l-0.005,-0.015l-0.005,-0.016l-0.006,-0.015l-0.005,-0.015l-0.006,-0.015l-0.005,-0.015l-0.006,-0.015l-0.007,-0.015l-0.006,-0.015l-0.006,-0.014l-0.007,-0.015l-0.007,-0.014l-0.007,-0.015l-0.007,-0.014l-0.008,-0.014l-0.007,-0.014l-0.008,-0.014l-0.008,-0.014l-0.008,-0.014l-0.008,-0.013l-0.008,-0.014l-0.009,-0.013l-0.008,-0.014l-0.009,-0.013l-0.009,-0.013l-0.009,-0.013l-0.01,-0.013l-0.009,-0.013l-0.01,-0.013l-0.01,-0.012l-0.009,-0.013l-0.01,-0.012l-0.011,-0.012l-0.01,-0.012l-0.01,-0.012l-0.011,-0.012l-0.011,-0.012l-0.011,-0.011l-0.011,-0.012l-0.011,-0.011l-0.011,-0.011l-0.012,-0.011l-0.011,-0.011l-0.012,-0.011l-0.012,-0.01l-0.012,-0.011l-0.012,-0.01l-0.012,-0.01l-0.012,-0.01l-0.013,-0.01l-0.012,-0.01l-0.013,-0.01l-0.013,-0.009l-0.013,-0.009l-0.013,-0.009l-0.013,-0.009l-0.013,-0.009l-0.013,-0.009l-0.014,-0.008l-0.013,-0.009l-0.014,-0.008l-0.014,-0.008l-0.014,-0.008l-0.014,-0.008l-0.014,-0.007l-0.014,-0.007l-0.014,-0.008l-0.014,-0.007l-0.015,-0.007l-0.014,-0.006l-0.015,-0.007l-0.015,-0.006l-0.015,-0.006l-0.014,-0.006l-0.015,-0.006l-0.016,-0.006l-0.015,-0.005l-0.015,-0.005l-0.015,-0.006l-0.016,-0.004l-0.015,-0.005l-0.016,-0.005l-0.015,-0.004l-0.016,-0.004l-0.016,-0.004l-0.016,-0.004l-0.016,-0.003l-0.016,-0.004l-0.016,-0.003l-0.016,-0.003l-0.016,-0.003l-0.017,-0.002l-0.016,-0.003l-0.016,-0.002l-0.017,-0.002l-0.017,-0.002l-0.016,-0.001l-0.017,-0.002l-0.017,-0.001l-0.017,-0.001l-0.017,-0.001l-0.017,0l-0.017,-0.001l-0.017,0l-0.017,0Z"/><path d="M5.28,4.965l-0.339,0.339l-1.862,-1.862l0.339,-0.339l1.862,1.862Z"/></svg>