<?xml version="1.0" encoding="UTF-8" standalone="no"?><!DOCTYPE svg PUBLIC "-//W3C//DTD SVG 1.1//EN" "http://www.w3.org/Graphics/SVG/1.1/DTD/svg11.dtd"><svg width="100%" height="100%" viewBox="0 0 6 6" version="1.1" xmlns="http://www.w3.org/2000/svg" xmlns:xlink="http://www.w3.org/1999/xlink" xml:space="preserve" xmlns:serif="http://www.serif.com/" style="fill-rule:evenodd;clip-rule:evenodd;stroke-linejoin:round;stroke-miterlimit:1.41421;"><g><path d="M4.662,3.351l-3.323,0l-0.215,-2.456l-0.475,-0.089l0.088,-0.472l0.833,0.156l0.209,2.381l2.52,0l0.424,-1.496l-2.574,0l0,-0.48l3.161,0l0.034,0.045l-0.682,2.411Z"/><path d="M2.251,3.161l-0.179,0.84l2.632,0l0,0.48l-3.197,0l-0.022,-0.027l0.296,-1.393l0.47,0.1Z"/><path d="M1.953,4.523l0.01,0l0.009,0.001l0.009,0.001l0.009,0.001l0.009,0.002l0.009,0.002l0.009,0.002l0.008,0.002l0.009,0.002l0.009,0.003l0.008,0.003l0.008,0.003l0.009,0.004l0.008,0.003l0.008,0.004l0.008,0.004l0.008,0.005l0.008,0.004l0.008,0.005l0.007,0.005l0.008,0.005l0.007,0.006l0.007,0.005l0.007,0.006l0.007,0.006l0.007,0.006l0.007,0.007l0.007,0.006l0.006,0.007l0.006,0.007l0.007,0.007l0.006,0.007l0.005,0.008l0.006,0.007l0.006,0.008l0.005,0.008l0.005,0.008l0.006,0.008l0.004,0.009l0.005,0.008l0.005,0.009l0.004,0.009l0.005,0.009l0.004,0.009l0.003,0.009l0.004,0.009l0.004,0.01l0.003,0.009l0.003,0.01l0.003,0.01l0.003,0.01l0.002,0.01l0.003,0.01l0.002,0.01l0.002,0.01l0.001,0.011l0.002,0.01l0.001,0.011l0.001,0.01l0.001,0.011l0.001,0.011l0,0.011l0,0.01l0,0.011l0,0.011l-0.001,0.011l-0.001,0.011l-0.001,0.01l-0.001,0.011l-0.002,0.01l-0.001,0.011l-0.002,0.01l-0.002,0.01l-0.003,0.01l-0.002,0.01l-0.003,0.01l-0.003,0.01l-0.003,0.01l-0.003,0.009l-0.004,0.01l-0.004,0.009l-0.003,0.009l-0.004,0.009l-0.005,0.009l-0.004,0.009l-0.005,0.009l-0.005,0.008l-0.004,0.009l-0.006,0.008l-0.005,0.008l-0.005,0.008l-0.006,0.008l-0.006,0.007l-0.005,0.008l-0.006,0.007l-0.007,0.007l-0.006,0.007l-0.006,0.007l-0.007,0.006l-0.007,0.007l-0.007,0.006l-0.007,0.006l-0.007,0.006l-0.007,0.005l-0.007,0.006l-0.008,0.005l-0.007,0.005l-0.008,0.005l-0.008,0.004l-0.008,0.005l-0.008,0.004l-0.008,0.004l-0.008,0.003l-0.009,0.004l-0.008,0.003l-0.008,0.003l-0.009,0.003l-0.009,0.002l-0.008,0.002l-0.009,0.002l-0.009,0.002l-0.009,0.002l-0.009,0.001l-0.009,0.001l-0.009,0l-0.01,0.001l-0.009,0l-0.009,0l-0.01,-0.001l-0.009,0l-0.009,-0.001l-0.009,-0.001l-0.009,-0.002l-0.009,-0.002l-0.009,-0.002l-0.008,-0.002l-0.009,-0.002l-0.009,-0.003l-0.008,-0.003l-0.008,-0.003l-0.009,-0.004l-0.008,-0.003l-0.008,-0.004l-0.008,-0.004l-0.008,-0.005l-0.008,-0.004l-0.008,-0.005l-0.007,-0.005l-0.008,-0.005l-0.007,-0.006l-0.007,-0.005l-0.007,-0.006l-0.007,-0.006l-0.007,-0.006l-0.007,-0.007l-0.007,-0.006l-0.006,-0.007l-0.006,-0.007l-0.007,-0.007l-0.006,-0.007l-0.005,-0.008l-0.006,-0.007l-0.006,-0.008l-0.005,-0.008l-0.005,-0.008l-0.006,-0.008l-0.004,-0.009l-0.005,-0.008l-0.005,-0.009l-0.004,-0.009l-0.005,-0.009l-0.004,-0.009l-0.003,-0.009l-0.004,-0.009l-0.004,-0.01l-0.003,-0.009l-0.003,-0.01l-0.003,-0.01l-0.003,-0.01l-0.002,-0.01l-0.003,-0.01l-0.002,-0.01l-0.002,-0.01l-0.001,-0.011l-0.002,-0.01l-0.001,-0.011l-0.001,-0.01l-0.001,-0.011l-0.001,-0.011l0,-0.011l0,-0.011l0,-0.01l0,-0.011l0.001,-0.011l0.001,-0.011l0.001,-0.01l0.001,-0.011l0.002,-0.01l0.001,-0.011l0.002,-0.01l0.002,-0.01l0.003,-0.01l0.002,-0.01l0.003,-0.01l0.003,-0.01l0.003,-0.01l0.003,-0.009l0.004,-0.01l0.004,-0.009l0.003,-0.009l0.004,-0.009l0.005,-0.009l0.004,-0.009l0.005,-0.009l0.005,-0.008l0.004,-0.009l0.006,-0.008l0.005,-0.008l0.005,-0.008l0.006,-0.008l0.006,-0.007l0.005,-0.008l0.006,-0.007l0.007,-0.007l0.006,-0.007l0.006,-0.007l0.007,-0.006l0.007,-0.007l0.007,-0.006l0.007,-0.006l0.007,-0.006l0.007,-0.005l0.007,-0.006l0.008,-0.005l0.007,-0.005l0.008,-0.005l0.008,-0.004l0.008,-0.005l0.008,-0.004l0.008,-0.004l0.008,-0.003l0.009,-0.004l0.008,-0.003l0.008,-0.003l0.009,-0.003l0.009,-0.002l0.008,-0.002l0.009,-0.002l0.009,-0.002l0.009,-0.002l0.009,-0.001l0.009,-0.001l0.009,-0.001l0.01,0l0.009,0l0.009,0Zm-0.014,0.367l-0.005,0l-0.005,0.001l-0.005,0l-0.005,0.001l-0.005,0.001l-0.005,0.001l-0.005,0.001l-0.005,0.001l-0.004,0.001l-0.005,0.002l-0.004,0.001l-0.004,0.002l-0.004,0.001l-0.004,0.002l-0.004,0.002l-0.003,0.002l-0.004,0.002l-0.003,0.002l-0.003,0.001l-0.003,0.002l-0.003,0.002l-0.002,0.002l-0.003,0.002l-0.002,0.002l-0.002,0.001l-0.002,0.002l-0.001,0.002l-0.002,0.001l-0.002,0.002l-0.001,0.002l-0.001,0.001l-0.001,0.001l-0.001,0.002l-0.001,0.001l-0.001,0.001l-0.001,0.001l-0.001,0.001l0,0.001l-0.001,0.001l0,0.001l-0.001,0.001l0,0l0,0l0.002,0.005l0.004,0.004l0.003,0.004l0.003,0.003l0.003,0.004l0.004,0.003l0.005,0.004l0.005,0.004l0.003,0.002l0.003,0.001l0.003,0.002l0.004,0.002l0.003,0.002l0.004,0.002l0.004,0.002l0.004,0.001l0.004,0.002l0.004,0.001l0.005,0.002l0.004,0.001l0.005,0.001l0.005,0.001l0.005,0.001l0.005,0.001l0.005,0.001l0.005,0l0.005,0.001l0.005,0l0.005,0l0.005,0l0.005,0l0.005,-0.001l0.005,0l0.005,-0.001l0.005,-0.001l0.005,-0.001l0.005,-0.001l0.005,-0.001l0.004,-0.001l0.005,-0.002l0.004,-0.001l0.004,-0.002l0.004,-0.002l0.004,-0.001l0.004,-0.002l0.003,-0.002l0.004,-0.002l0.003,-0.002l0.003,-0.001l0.003,-0.002l0.003,-0.002l0.002,-0.002l0.003,-0.002l0.002,-0.002l0.002,-0.002l0.002,-0.001l0.001,-0.002l0.002,-0.002l0.002,-0.001l0.001,-0.002l0.001,-0.001l0.001,-0.001l0.001,-0.002l0.001,-0.001l0.001,-0.001l0.001,-0.001l0.001,-0.001l0,-0.001l0.001,-0.001l0,-0.001l0.001,-0.001l0,0l0,-0.001l0,0l0,0l-0.001,-0.001l0,-0.001l-0.001,-0.001l0,-0.001l-0.001,-0.001l-0.001,-0.001l-0.001,-0.001l-0.001,-0.001l-0.001,-0.002l-0.001,-0.001l-0.001,-0.001l-0.001,-0.002l-0.002,-0.001l-0.002,-0.002l-0.001,-0.002l-0.002,-0.002l-0.002,-0.001l-0.002,-0.002l-0.003,-0.002l-0.002,-0.002l-0.003,-0.002l-0.003,-0.002l-0.003,-0.001l-0.003,-0.002l-0.004,-0.002l-0.003,-0.002l-0.004,-0.002l-0.004,-0.002l-0.004,-0.001l-0.004,-0.002l-0.004,-0.001l-0.005,-0.002l-0.004,-0.001l-0.005,-0.001l-0.005,-0.001l-0.005,-0.001l-0.005,-0.001l-0.005,-0.001l-0.005,0l-0.005,-0.001l-0.005,0l-0.005,0l-0.005,0Z"/><path d="M3.993,4.523l0.01,0l0.009,0.001l0.009,0.001l0.009,0.001l0.009,0.002l0.009,0.002l0.009,0.002l0.008,0.002l0.009,0.002l0.009,0.003l0.008,0.003l0.008,0.003l0.009,0.004l0.008,0.003l0.008,0.004l0.008,0.004l0.008,0.005l0.008,0.004l0.008,0.005l0.007,0.005l0.008,0.005l0.007,0.006l0.007,0.005l0.007,0.006l0.007,0.006l0.007,0.006l0.007,0.007l0.007,0.006l0.006,0.007l0.006,0.007l0.007,0.007l0.006,0.007l0.005,0.008l0.006,0.007l0.006,0.008l0.005,0.008l0.005,0.008l0.006,0.008l0.004,0.009l0.005,0.008l0.005,0.009l0.004,0.009l0.005,0.009l0.004,0.009l0.003,0.009l0.004,0.009l0.004,0.01l0.003,0.009l0.003,0.01l0.003,0.01l0.003,0.01l0.002,0.01l0.003,0.01l0.002,0.01l0.002,0.01l0.001,0.011l0.002,0.01l0.001,0.011l0.001,0.01l0.001,0.011l0.001,0.011l0,0.011l0,0.01l0,0.011l0,0.011l-0.001,0.011l-0.001,0.011l-0.001,0.01l-0.001,0.011l-0.002,0.01l-0.001,0.011l-0.002,0.01l-0.002,0.01l-0.003,0.01l-0.002,0.01l-0.003,0.01l-0.003,0.01l-0.003,0.01l-0.003,0.009l-0.004,0.01l-0.004,0.009l-0.003,0.009l-0.004,0.009l-0.005,0.009l-0.004,0.009l-0.005,0.009l-0.005,0.008l-0.004,0.009l-0.006,0.008l-0.005,0.008l-0.005,0.008l-0.006,0.008l-0.006,0.007l-0.005,0.008l-0.006,0.007l-0.007,0.007l-0.006,0.007l-0.006,0.007l-0.007,0.006l-0.007,0.007l-0.007,0.006l-0.007,0.006l-0.007,0.006l-0.007,0.005l-0.007,0.006l-0.008,0.005l-0.007,0.005l-0.008,0.005l-0.008,0.004l-0.008,0.005l-0.008,0.004l-0.008,0.004l-0.008,0.003l-0.009,0.004l-0.008,0.003l-0.008,0.003l-0.009,0.003l-0.009,0.002l-0.008,0.002l-0.009,0.002l-0.009,0.002l-0.009,0.002l-0.009,0.001l-0.009,0.001l-0.009,0l-0.01,0.001l-0.009,0l-0.009,0l-0.01,-0.001l-0.009,0l-0.009,-0.001l-0.009,-0.001l-0.009,-0.002l-0.009,-0.002l-0.009,-0.002l-0.008,-0.002l-0.009,-0.002l-0.009,-0.003l-0.008,-0.003l-0.008,-0.003l-0.009,-0.004l-0.008,-0.003l-0.008,-0.004l-0.008,-0.004l-0.008,-0.005l-0.008,-0.004l-0.008,-0.005l-0.007,-0.005l-0.008,-0.005l-0.007,-0.006l-0.007,-0.005l-0.007,-0.006l-0.007,-0.006l-0.007,-0.006l-0.007,-0.007l-0.007,-0.006l-0.006,-0.007l-0.006,-0.007l-0.007,-0.007l-0.006,-0.007l-0.005,-0.008l-0.006,-0.007l-0.006,-0.008l-0.005,-0.008l-0.005,-0.008l-0.006,-0.008l-0.004,-0.009l-0.005,-0.008l-0.005,-0.009l-0.004,-0.009l-0.005,-0.009l-0.004,-0.009l-0.003,-0.009l-0.004,-0.009l-0.004,-0.01l-0.003,-0.009l-0.003,-0.01l-0.003,-0.01l-0.003,-0.01l-0.002,-0.01l-0.003,-0.01l-0.002,-0.01l-0.002,-0.01l-0.001,-0.011l-0.002,-0.01l-0.001,-0.011l-0.001,-0.01l-0.001,-0.011l-0.001,-0.011l0,-0.011l0,-0.011l0,-0.01l0,-0.011l0.001,-0.011l0.001,-0.011l0.001,-0.01l0.001,-0.011l0.002,-0.01l0.001,-0.011l0.002,-0.01l0.002,-0.01l0.003,-0.01l0.002,-0.01l0.003,-0.01l0.003,-0.01l0.003,-0.01l0.003,-0.009l0.004,-0.01l0.004,-0.009l0.003,-0.009l0.004,-0.009l0.005,-0.009l0.004,-0.009l0.005,-0.009l0.005,-0.008l0.004,-0.009l0.006,-0.008l0.005,-0.008l0.005,-0.008l0.006,-0.008l0.006,-0.007l0.005,-0.008l0.006,-0.007l0.007,-0.007l0.006,-0.007l0.006,-0.007l0.007,-0.006l0.007,-0.007l0.007,-0.006l0.007,-0.006l0.007,-0.006l0.007,-0.005l0.007,-0.006l0.008,-0.005l0.007,-0.005l0.008,-0.005l0.008,-0.004l0.008,-0.005l0.008,-0.004l0.008,-0.004l0.008,-0.003l0.009,-0.004l0.008,-0.003l0.008,-0.003l0.009,-0.003l0.009,-0.002l0.008,-0.002l0.009,-0.002l0.009,-0.002l0.009,-0.002l0.009,-0.001l0.009,-0.001l0.009,-0.001l0.01,0l0.009,0l0.009,0Zm-0.014,0.367l-0.005,0l-0.005,0.001l-0.005,0l-0.005,0.001l-0.005,0.001l-0.005,0.001l-0.005,0.001l-0.005,0.001l-0.004,0.001l-0.005,0.002l-0.004,0.001l-0.004,0.002l-0.004,0.001l-0.004,0.002l-0.004,0.002l-0.003,0.002l-0.004,0.002l-0.003,0.002l-0.003,0.001l-0.003,0.002l-0.003,0.002l-0.002,0.002l-0.003,0.002l-0.002,0.002l-0.002,0.001l-0.002,0.002l-0.001,0.002l-0.002,0.002l-0.002,0.001l-0.001,0.002l-0.001,0.001l-0.001,0.001l-0.001,0.002l-0.001,0.001l-0.001,0.001l-0.001,0.001l-0.001,0.001l0,0.001l-0.001,0.001l0,0.001l-0.001,0.001l0,0l0,0l0.002,0.005l0.004,0.004l0.003,0.004l0.003,0.003l0.003,0.004l0.004,0.003l0.005,0.004l0.005,0.004l0.003,0.002l0.003,0.001l0.003,0.002l0.004,0.002l0.003,0.002l0.004,0.002l0.004,0.001l0.004,0.002l0.004,0.002l0.004,0.001l0.005,0.002l0.004,0.001l0.005,0.001l0.005,0.001l0.005,0.001l0.005,0.001l0.005,0.001l0.005,0l0.005,0.001l0.005,0l0.005,0l0.005,0l0.005,0l0.005,-0.001l0.005,0l0.005,-0.001l0.005,-0.001l0.005,-0.001l0.005,-0.001l0.005,-0.001l0.004,-0.001l0.005,-0.002l0.004,-0.001l0.004,-0.002l0.004,-0.001l0.004,-0.002l0.004,-0.002l0.003,-0.002l0.004,-0.002l0.003,-0.002l0.003,-0.001l0.003,-0.002l0.003,-0.002l0.002,-0.002l0.003,-0.002l0.002,-0.002l0.002,-0.002l0.002,-0.001l0.001,-0.002l0.002,-0.002l0.002,-0.001l0.001,-0.002l0.001,-0.001l0.001,-0.001l0.001,-0.002l0.001,-0.001l0.001,-0.001l0.001,-0.001l0.001,-0.001l0,-0.001l0.001,-0.001l0,-0.001l0.001,-0.001l0,0l0,-0.001l0,0l0,0l-0.001,-0.001l0,-0.001l-0.001,-0.001l0,-0.001l-0.001,-0.001l-0.001,-0.001l-0.001,-0.001l-0.001,-0.001l-0.001,-0.002l-0.001,-0.001l-0.001,-0.001l-0.001,-0.002l-0.002,-0.002l-0.002,-0.001l-0.001,-0.002l-0.002,-0.002l-0.002,-0.001l-0.002,-0.002l-0.003,-0.002l-0.002,-0.002l-0.003,-0.002l-0.003,-0.002l-0.003,-0.001l-0.003,-0.002l-0.004,-0.002l-0.003,-0.002l-0.004,-0.002l-0.004,-0.002l-0.004,-0.001l-0.004,-0.002l-0.004,-0.001l-0.005,-0.002l-0.004,-0.001l-0.005,-0.001l-0.005,-0.001l-0.005,-0.001l-0.005,-0.001l-0.005,-0.001l-0.005,0l-0.005,-0.001l-0.005,0l-0.005,0l-0.005,0Z"/></g></svg>